<svg xmlns="http://www.w3.org/2000/svg" xmlns:xlink="http://www.w3.org/1999/xlink" width="500" zoomAndPan="magnify" viewBox="0 0 375 374.999991" height="500" preserveAspectRatio="xMidYMid meet" version="1.0"><defs><clipPath id="3471e9446f"><path d="M 29 29.605469 L 355.476562 29.605469 L 355.476562 356 L 29 356 Z M 29 29.605469 " clip-rule="nonzero"/></clipPath></defs><g clip-path="url(#3471e9446f)"><path fill="#ffffff" d="M 192.039062 29.902344 C 101.144531 30.210938 28.5 104.113281 29.6875 195 C 29.742188 199.566406 29.988281 204.121094 30.425781 208.667969 C 30.863281 213.214844 31.492188 217.734375 32.3125 222.226562 C 33.132812 226.71875 34.140625 231.167969 35.335938 235.574219 C 36.535156 239.980469 37.914062 244.332031 39.476562 248.621094 C 41.039062 252.910156 42.78125 257.128906 44.699219 261.273438 C 46.621094 265.417969 48.710938 269.472656 50.972656 273.4375 C 53.234375 277.40625 55.660156 281.269531 58.246094 285.03125 C 60.835938 288.796875 63.578125 292.441406 66.472656 295.972656 C 66.929688 296.53125 67.339844 297.117188 67.707031 297.738281 C 68.074219 298.355469 68.390625 299 68.664062 299.664062 C 68.933594 300.332031 69.152344 301.015625 69.320312 301.714844 C 69.492188 302.414062 69.605469 303.121094 69.667969 303.839844 C 69.730469 304.554688 69.742188 305.273438 69.695312 305.992188 C 69.652344 306.710938 69.554688 307.421875 69.402344 308.125 C 69.25 308.828125 69.050781 309.515625 68.796875 310.1875 C 68.542969 310.863281 68.238281 311.511719 67.886719 312.140625 L 53.851562 337.292969 C 49.960938 344.265625 56.300781 352.507812 64.039062 350.539062 L 111.574219 338.433594 C 113.234375 338.015625 114.914062 337.890625 116.613281 338.066406 C 118.316406 338.242188 119.933594 338.703125 121.472656 339.449219 C 131.984375 344.558594 142.917969 348.480469 154.28125 351.222656 C 165.640625 353.964844 177.160156 355.460938 188.84375 355.710938 C 280.230469 357.777344 355.238281 284.757812 355.523438 193.347656 C 355.804688 102.941406 282.449219 29.597656 192.039062 29.902344 Z M 192.597656 335.679688 C 190.261719 335.679688 187.925781 335.621094 185.589844 335.507812 C 183.253906 335.390625 180.921875 335.21875 178.597656 334.992188 C 176.269531 334.761719 173.949219 334.476562 171.636719 334.132812 C 169.324219 333.789062 167.023438 333.390625 164.730469 332.933594 C 162.4375 332.480469 160.15625 331.964844 157.890625 331.398438 C 155.621094 330.832031 153.367188 330.207031 151.132812 329.527344 C 148.894531 328.851562 146.675781 328.117188 144.472656 327.328125 C 142.273438 326.542969 140.09375 325.699219 137.933594 324.804688 C 135.773438 323.910156 133.636719 322.964844 131.523438 321.964844 C 129.410156 320.964844 127.320312 319.914062 125.261719 318.8125 C 123.199219 317.710938 121.164062 316.558594 119.160156 315.355469 C 117.15625 314.15625 115.179688 312.90625 113.234375 311.605469 C 111.292969 310.308594 109.382812 308.960938 107.503906 307.570312 C 105.625 306.175781 103.785156 304.738281 101.976562 303.253906 C 100.167969 301.773438 98.398438 300.246094 96.667969 298.675781 C 94.933594 297.105469 93.242188 295.492188 91.589844 293.839844 C 89.9375 292.1875 88.324219 290.496094 86.753906 288.761719 C 85.183594 287.03125 83.65625 285.261719 82.175781 283.453125 C 80.691406 281.644531 79.253906 279.804688 77.859375 277.925781 C 76.46875 276.046875 75.121094 274.136719 73.824219 272.191406 C 72.523438 270.25 71.273438 268.273438 70.074219 266.269531 C 68.871094 264.265625 67.71875 262.230469 66.617188 260.167969 C 65.515625 258.105469 64.464844 256.019531 63.464844 253.90625 C 62.464844 251.792969 61.515625 249.65625 60.621094 247.496094 C 59.726562 245.335938 58.886719 243.15625 58.097656 240.953125 C 57.3125 238.753906 56.578125 236.535156 55.898438 234.296875 C 55.222656 232.058594 54.597656 229.808594 54.03125 227.539062 C 53.460938 225.273438 52.949219 222.992188 52.492188 220.699219 C 52.039062 218.40625 51.636719 216.101562 51.296875 213.789062 C 50.953125 211.476562 50.664062 209.15625 50.4375 206.832031 C 50.207031 204.503906 50.035156 202.171875 49.921875 199.839844 C 49.804688 197.503906 49.75 195.167969 49.75 192.828125 C 49.75 113.9375 113.707031 49.980469 192.597656 49.980469 C 271.1875 49.980469 334.953125 113.441406 335.445312 191.910156 C 335.941406 270.648438 271.335938 335.679688 192.597656 335.679688 Z M 192.597656 335.679688 " fill-opacity="1" fill-rule="nonzero"/></g><path fill="#ffffff" d="M 167.066406 123.378906 L 167.132812 123.511719 L 175.652344 140.410156 C 176.113281 141.316406 176.496094 142.257812 176.800781 143.226562 C 177.105469 144.199219 177.335938 145.1875 177.480469 146.195312 C 177.628906 147.199219 177.695312 148.214844 177.675781 149.230469 C 177.660156 150.25 177.5625 151.257812 177.382812 152.261719 C 177.203125 153.261719 176.945312 154.242188 176.609375 155.203125 C 176.269531 156.164062 175.859375 157.089844 175.371094 157.984375 C 174.882812 158.878906 174.328125 159.726562 173.703125 160.53125 C 173.082031 161.332031 172.394531 162.082031 171.652344 162.777344 C 170.910156 163.464844 170.226562 164.207031 169.605469 165.003906 C 168.984375 165.804688 168.429688 166.644531 167.941406 167.53125 C 167.453125 168.417969 167.042969 169.339844 166.703125 170.292969 C 166.363281 171.246094 166.101562 172.21875 165.921875 173.214844 C 165.738281 174.210938 165.636719 175.214844 165.617188 176.226562 C 165.59375 177.238281 165.65625 178.246094 165.796875 179.246094 C 165.9375 180.25 166.15625 181.234375 166.457031 182.199219 C 166.753906 183.164062 167.128906 184.101562 167.578125 185.007812 C 172.691406 195.277344 181.554688 209.4375 195.078125 219.648438 C 195.828125 220.222656 196.621094 220.734375 197.453125 221.1875 C 198.28125 221.644531 199.140625 222.03125 200.03125 222.355469 C 200.917969 222.683594 201.828125 222.941406 202.753906 223.128906 C 203.679688 223.320312 204.617188 223.4375 205.5625 223.488281 C 206.507812 223.535156 207.449219 223.515625 208.390625 223.421875 C 209.332031 223.332031 210.261719 223.171875 211.179688 222.941406 C 212.097656 222.710938 212.992188 222.410156 213.867188 222.046875 C 214.738281 221.683594 215.582031 221.253906 216.390625 220.765625 L 221.875 217.425781 C 223.105469 216.675781 224.40625 216.078125 225.773438 215.625 C 227.140625 215.171875 228.542969 214.878906 229.976562 214.746094 C 231.410156 214.617188 232.839844 214.648438 234.269531 214.839844 C 235.695312 215.035156 237.082031 215.390625 238.429688 215.898438 L 260.238281 224.191406 C 260.816406 224.414062 261.386719 224.660156 261.941406 224.9375 C 262.496094 225.214844 263.035156 225.515625 263.558594 225.84375 C 264.085938 226.171875 264.59375 226.527344 265.082031 226.90625 C 265.574219 227.285156 266.042969 227.6875 266.496094 228.113281 C 266.945312 228.539062 267.375 228.984375 267.78125 229.449219 C 268.1875 229.917969 268.570312 230.402344 268.929688 230.910156 C 269.289062 231.414062 269.625 231.933594 269.933594 232.472656 C 270.238281 233.011719 270.519531 233.5625 270.773438 234.128906 C 271.027344 234.691406 271.253906 235.269531 271.453125 235.855469 C 271.648438 236.445312 271.816406 237.039062 271.957031 237.644531 C 272.09375 238.246094 272.203125 238.855469 272.28125 239.472656 C 272.359375 240.085938 272.410156 240.703125 272.425781 241.324219 C 272.445312 241.941406 272.433594 242.5625 272.390625 243.179688 C 272.347656 243.796875 272.277344 244.414062 272.171875 245.023438 C 272.070312 245.632812 271.9375 246.238281 271.773438 246.835938 C 271.613281 247.433594 271.421875 248.023438 271.199219 248.601562 C 270.945312 249.269531 270.65625 249.917969 270.328125 250.554688 L 264.285156 262.265625 C 263.796875 263.214844 263.230469 264.113281 262.589844 264.964844 C 261.949219 265.816406 261.238281 266.609375 260.464844 267.34375 C 259.691406 268.074219 258.859375 268.734375 257.972656 269.328125 C 257.085938 269.917969 256.15625 270.433594 255.179688 270.867188 C 254.207031 271.300781 253.203125 271.652344 252.171875 271.917969 C 251.136719 272.183594 250.089844 272.359375 249.027344 272.445312 C 247.964844 272.535156 246.902344 272.535156 245.839844 272.441406 C 244.777344 272.351562 243.730469 272.171875 242.699219 271.902344 C 208.445312 263.039062 126.8125 232.238281 120.234375 139.089844 C 120.171875 138.171875 120.171875 137.25 120.242188 136.332031 C 120.3125 135.414062 120.445312 134.503906 120.648438 133.605469 C 120.851562 132.703125 121.117188 131.824219 121.445312 130.964844 C 121.777344 130.105469 122.167969 129.273438 122.621094 128.46875 C 123.074219 127.664062 123.582031 126.898438 124.144531 126.171875 C 124.707031 125.441406 125.324219 124.757812 125.988281 124.117188 C 126.648438 123.476562 127.355469 122.890625 128.105469 122.355469 C 128.855469 121.816406 129.640625 121.339844 130.460938 120.917969 L 141.585938 115.203125 C 142.136719 114.921875 142.699219 114.664062 143.277344 114.4375 C 143.851562 114.207031 144.4375 114.007812 145.035156 113.839844 C 145.628906 113.667969 146.234375 113.527344 146.84375 113.417969 C 147.453125 113.304688 148.066406 113.222656 148.683594 113.171875 C 149.300781 113.121094 149.921875 113.101562 150.539062 113.113281 C 151.160156 113.121094 151.777344 113.160156 152.394531 113.230469 C 153.007812 113.304688 153.621094 113.402344 154.226562 113.535156 C 154.832031 113.664062 155.429688 113.824219 156.019531 114.015625 C 156.609375 114.203125 157.1875 114.421875 157.757812 114.667969 C 158.328125 114.914062 158.882812 115.1875 159.425781 115.488281 C 159.964844 115.789062 160.492188 116.117188 161 116.46875 C 161.511719 116.820312 162.003906 117.199219 162.476562 117.597656 C 162.949219 118 163.398438 118.421875 163.832031 118.867188 C 164.261719 119.3125 164.671875 119.777344 165.054688 120.261719 C 165.441406 120.75 165.800781 121.25 166.140625 121.773438 C 166.476562 122.292969 166.785156 122.828125 167.066406 123.378906 Z M 167.066406 123.378906 " fill-opacity="1" fill-rule="nonzero"/></svg>