<?xml version="1.0" encoding="UTF-8"?>
<!DOCTYPE svg PUBLIC "-//W3C//DTD SVG 1.1//EN" "http://www.w3.org/Graphics/SVG/1.1/DTD/svg11.dtd">
<svg xmlns="http://www.w3.org/2000/svg" version="1.1" width="339px" height="189px" style="shape-rendering:geometricPrecision; text-rendering:geometricPrecision; image-rendering:optimizeQuality; fill-rule:evenodd; clip-rule:evenodd" xmlns:xlink="http://www.w3.org/1999/xlink">
<g><path style="opacity:0.999" fill="#8c59cb" d="M 6.5,-0.5 C 14.5,-0.5 22.5,-0.5 30.5,-0.5C 31.1705,2.33767 32.5038,4.83767 34.5,7C 33.5,7.33333 32.5,7.66667 31.5,8C 32.8491,8.77241 33.6824,9.93908 34,11.5C 34.805,9.09894 35.6383,9.26561 36.5,12C 33.1514,12.0891 32.6514,13.2557 35,15.5C 35.8373,13.9926 37.0039,13.4926 38.5,14C 38.1667,14.3333 37.8333,14.6667 37.5,15C 38.2931,16.0852 38.9598,17.2519 39.5,18.5C 38.8333,18.8333 38.1667,19.1667 37.5,19.5C 38.7111,20.7202 38.7111,21.8869 37.5,23C 39.4404,22.8219 41.107,23.8219 42.5,26C 41.6919,26.3076 41.0253,26.8076 40.5,27.5C 41.7113,28.8745 42.7113,30.3745 43.5,32C 42.5692,34.4748 43.5692,36.1415 46.5,37C 43.9368,39.5259 44.6034,41.1926 48.5,42C 47.572,42.3879 46.9054,43.0546 46.5,44C 46.4259,46.7343 47.5926,49.2343 50,51.5C 50.3333,51.1667 50.6667,50.8333 51,50.5C 51.4017,51.8721 51.9017,53.2054 52.5,54.5C 52.1543,55.6956 51.6543,55.6956 51,54.5C 50.3828,55.4491 50.5494,56.2825 51.5,57C 50.8333,57.3333 50.1667,57.6667 49.5,58C 51.5,58.6667 53.5,59.3333 55.5,60C 54.5467,61.9552 53.2134,63.6218 51.5,65C 52.8333,65.3333 54.1667,65.6667 55.5,66C 53.4049,66.5556 53.2382,67.0556 55,67.5C 55.772,67.3552 56.4387,67.0219 57,66.5C 57.1953,68.2072 57.1953,69.8739 57,71.5C 58.0674,72.1905 59.2341,72.6905 60.5,73C 59.8333,73.3333 59.1667,73.6667 58.5,74C 59.3757,75.5848 60.7091,76.5848 62.5,77C 59.2577,77.2833 58.9244,78.1166 61.5,79.5C 60.4706,79.2964 59.4706,79.7964 58.5,81C 60.4211,81.3603 62.0878,82.1936 63.5,83.5C 64.451,82.6744 65.451,82.5078 66.5,83C 64.5,84.3333 62.5,85.6667 60.5,87C 61.4695,88.7583 62.6361,89.2583 64,88.5C 64.6838,89.7839 64.5171,90.9505 63.5,92C 63.9981,93.1581 64.8315,93.9915 66,94.5C 69.1556,92.0139 72.3223,89.5139 75.5,87C 76.1667,86.3333 76.8333,86.3333 77.5,87C 75.269,88.6097 73.269,90.443 71.5,92.5C 72.4709,93.9621 72.1376,95.2954 70.5,96.5C 71.3802,98.4292 72.3802,100.263 73.5,102C 73.0946,102.945 72.428,103.612 71.5,104C 73.7615,104.701 74.7615,105.868 74.5,107.5C 75.1924,106.975 75.6924,106.308 76,105.5C 77.3333,105.5 78.6667,105.5 80,105.5C 79.5254,112.177 79.6921,118.844 80.5,125.5C 81.2508,126.376 81.7508,127.376 82,128.5C 82.3333,127.833 82.6667,127.167 83,126.5C 83.4652,127.931 84.2986,129.097 85.5,130C 85.1667,131 84.8333,132 84.5,133C 86.5,133.667 87.8333,135 88.5,137C 87.1667,137 85.8333,137 84.5,137C 86.1667,138 87.8333,139 89.5,140C 86.8333,141.333 86.8333,142.667 89.5,144C 88.4829,145.049 88.3162,146.216 89,147.5C 94.4267,154.931 100.593,161.764 107.5,168C 106.833,168.667 106.167,168.667 105.5,168C 102.667,165.167 99.8333,162.333 97,159.5C 94.8333,161 95,162.167 97.5,163C 95.842,163.725 95.342,164.892 96,166.5C 96.9476,168.57 98.4476,170.07 100.5,171C 99.8333,171.667 99.1667,172.333 98.5,173C 99.3052,174.972 100.639,176.472 102.5,177.5C 102.154,178.696 101.654,178.696 101,177.5C 98.811,180.934 99.6443,181.934 103.5,180.5C 103.833,181 104.167,181.5 104.5,182C 104.005,184.009 104.005,186.176 104.5,188.5C 90.1667,188.5 75.8333,188.5 61.5,188.5C 60.0401,186.537 58.3734,184.704 56.5,183C 59.1667,182.333 59.1667,181.667 56.5,181C 56.8333,180 57.1667,179 57.5,178C 53.8333,175 50.5,171.667 47.5,168C 47.5148,165.167 48.0148,162.334 49,159.5C 48.6667,159.833 48.3333,160.167 48,160.5C 47.6667,159.167 47.3333,157.833 47,156.5C 44.8807,156.493 43.0474,155.326 41.5,153C 42.6682,151.594 42.3348,150.428 40.5,149.5C 41.6405,148.575 41.6405,147.741 40.5,147C 41.7441,146.544 42.5774,147.044 43,148.5C 43.0912,145.178 41.9245,142.345 39.5,140C 40.7908,137.91 40.1242,136.576 37.5,136C 43.9545,134.471 43.9545,133.804 37.5,134C 38.9277,130.526 38.4277,130.026 36,132.5C 33.9045,131.285 34.0712,130.451 36.5,130C 34.4873,128.209 34.4873,126.875 36.5,126C 34.8421,124.337 32.8421,123.504 30.5,123.5C 30.6661,129.176 30.4994,134.843 30,140.5C 27.8324,131.68 28.6658,123.18 32.5,115C 31.0076,112.866 29.3409,110.866 27.5,109C 28.5,108.667 29.5,108.333 30.5,108C 29.354,107.355 28.354,106.522 27.5,105.5C 26.914,105.709 26.414,106.043 26,106.5C 25.3162,105.216 25.4829,104.049 26.5,103C 23.4557,102.641 23.1224,101.974 25.5,101C 22.2519,100.918 19.9186,99.4179 18.5,96.5C 19.0253,95.8076 19.6919,95.3076 20.5,95C 19.3859,93.5507 18.3859,92.2173 17.5,91C 17.9168,86.2907 20.5835,82.9574 25.5,81C 23.4021,81.0322 21.4021,81.6989 19.5,83C 13.1111,86.8558 6.77774,90.6891 0.5,94.5C 0.333355,65.1648 0.500022,35.8314 1,6.5C 2.66647,4.00432 4.49981,1.67098 6.5,-0.5 Z"/></g>
<g><path style="opacity:1" fill="#965dd7" d="M 69.5,-0.5 C 80.1667,-0.5 90.8333,-0.5 101.5,-0.5C 102.411,1.80294 104.077,3.30294 106.5,4C 105.044,4.42258 104.544,5.25591 105,6.5C 106.609,5.84991 108.109,6.34991 109.5,8C 108.549,8.71752 108.383,9.55085 109,10.5C 110.299,10.0338 111.799,10.0338 113.5,10.5C 113.268,14.9798 113.935,19.3132 115.5,23.5C 114.978,24.6074 114.645,25.7741 114.5,27C 115.422,28.0988 116.422,29.5988 117.5,31.5C 116.96,32.7481 116.293,33.9148 115.5,35C 122.383,32.8045 127.549,28.3045 131,21.5C 131.654,20.3044 132.154,20.3044 132.5,21.5C 129.37,26.7894 125.703,31.6227 121.5,36C 122.09,37.5095 122.756,39.0095 123.5,40.5C 123.911,39.7376 124.077,38.7376 124,37.5C 125.059,39.6592 126.559,41.3259 128.5,42.5C 121.173,46.8302 113.506,50.6635 105.5,54C 101.36,56.2518 97.0272,57.5851 92.5,58C 90.5188,57.3946 90.1854,56.3946 91.5,55C 90.2624,55.0773 89.2624,54.9106 88.5,54.5C 89.376,53.7492 90.376,53.2492 91.5,53C 90.2888,52.1072 90.2888,51.2739 91.5,50.5C 98.7788,47.5272 105.779,44.0272 112.5,40C 104.586,43.0345 96.7531,46.5345 89,50.5C 88.2496,49.8742 87.4162,49.3742 86.5,49C 87.8333,48.3333 89.1667,47.6667 90.5,47C 88.9391,46.6824 87.7724,45.8491 87,44.5C 86.2825,45.4506 85.4491,45.6172 84.5,45C 84.0509,43.896 84.0509,42.2293 84.5,40C 81.0458,39.7071 80.7124,38.3738 83.5,36C 81.6992,35.6827 81.3659,35.016 82.5,34C 79.5139,30.5728 78.5139,26.7394 79.5,22.5C 77.5714,22.7692 75.9047,22.2692 74.5,21C 74.2895,17.562 74.2895,13.7286 74.5,9.5C 72.9702,7.77379 71.9702,5.77379 71.5,3.5C 70.624,2.74917 69.624,2.24917 68.5,2C 70.6192,1.6582 70.9526,0.824868 69.5,-0.5 Z"/></g>
<g><path style="opacity:0.999" fill="#a362e9" d="M 197.5,-0.5 C 207.5,-0.5 217.5,-0.5 227.5,-0.5C 227.343,0.873441 227.51,2.20677 228,3.5C 228.333,2.83333 228.667,2.16667 229,1.5C 229.772,2.84905 230.939,3.68238 232.5,4C 230.221,4.47285 228.221,5.47285 226.5,7C 227,7.5 227.5,8 228,8.5C 228.849,6.49437 230.015,5.8277 231.5,6.5C 230.488,8.86424 229.155,10.1976 227.5,10.5C 227.808,11.3081 228.308,11.9747 229,12.5C 230.264,12.3601 231.431,12.3601 232.5,12.5C 231.376,13.914 230.376,15.414 229.5,17C 230,17.5 230.5,18 231,18.5C 233.058,17.8905 233.891,16.8905 233.5,15.5C 234.427,17.1128 235.261,18.7795 236,20.5C 238.333,19.1667 239.333,19.8333 239,22.5C 237.703,21.2164 236.536,21.3831 235.5,23C 236.931,23.4652 238.097,24.2986 239,25.5C 238.689,26.9346 238.855,28.2679 239.5,29.5C 240.274,30.7112 241.107,30.7112 242,29.5C 242.325,31.5527 241.991,33.5527 241,35.5C 240.107,34.2888 239.274,34.2888 238.5,35.5C 239.522,36.354 240.355,37.354 241,38.5C 241.333,38.1667 241.667,37.8333 242,37.5C 242.684,38.7839 242.517,39.9505 241.5,41C 243.527,42.8793 245.86,44.046 248.5,44.5C 248.649,45.552 248.483,46.552 248,47.5C 247.577,46.0439 246.744,45.5439 245.5,46C 246.458,47.1475 246.125,48.1475 244.5,49C 247.353,52.0961 247.02,54.7627 243.5,57C 244.5,57.6667 245.5,57.6667 246.5,57C 247.657,55.3787 248.49,53.5453 249,51.5C 249.5,52 250,52.5 250.5,53C 249.167,54 249.167,55 250.5,56C 249.833,56.3333 249.167,56.6667 248.5,57C 248.818,59.0419 248.985,61.2086 249,63.5C 249.333,62.8333 249.667,62.1667 250,61.5C 253.956,64.5728 254.456,67.7394 251.5,71C 252.784,71.6838 253.951,71.5171 255,70.5C 255.167,70.8333 255.333,71.1667 255.5,71.5C 251.735,73.3354 252.068,74.8354 256.5,76C 255.272,76.779 254.272,77.779 253.5,79C 255.234,80.7837 257.234,82.2837 259.5,83.5C 258.282,83.109 257.448,83.7756 257,85.5C 256.667,84.8333 256.333,84.1667 256,83.5C 255.405,84.8989 255.572,86.2322 256.5,87.5C 258.108,88.2421 259.775,88.4087 261.5,88C 260.743,89.5122 259.743,90.8455 258.5,92C 259.424,92.85 259.424,93.85 258.5,95C 258.833,95.5 259.167,96 259.5,96.5C 260.914,95.376 262.414,94.376 264,93.5C 266.096,94.7155 265.929,95.5488 263.5,96C 266.965,96.9336 267.298,98.4336 264.5,100.5C 265.833,101.5 265.833,102.5 264.5,103.5C 265.325,104.386 266.325,104.719 267.5,104.5C 267.454,107.092 266.454,109.259 264.5,111C 265.535,111.253 266.535,112.086 267.5,113.5C 263.66,114.86 263.66,116.36 267.5,118C 266.825,120.242 267.325,122.409 269,124.5C 271.062,122.221 272.395,119.888 273,117.5C 275.21,119.985 274.71,121.818 271.5,123C 272.244,125.483 272.244,128.149 271.5,131C 273.32,131.2 274.653,132.034 275.5,133.5C 266.073,133.598 260.74,138.265 259.5,147.5C 261.958,162.443 270.125,166.776 284,160.5C 285.666,161.348 287.166,162.348 288.5,163.5C 287.883,165.229 286.883,166.729 285.5,168C 286.191,169.067 286.691,170.234 287,171.5C 287.333,170.833 287.667,170.167 288,169.5C 288.84,172.464 289.84,172.797 291,170.5C 293.025,174.234 292.191,177.401 288.5,180C 290.391,180.309 291.725,179.475 292.5,177.5C 293.739,179.007 293.405,180.174 291.5,181C 294.383,181.795 295.883,180.629 296,177.5C 296.5,178 297,178.5 297.5,179C 295.807,181.69 293.473,183.69 290.5,185C 291.5,185.333 292.5,185.667 293.5,186C 292.748,186.671 292.414,187.504 292.5,188.5C 269.5,188.5 246.5,188.5 223.5,188.5C 220.85,187.753 218.184,186.753 215.5,185.5C 215.709,184.914 216.043,184.414 216.5,184C 215.283,182.352 214.45,180.519 214,178.5C 213.683,180.301 213.016,180.634 212,179.5C 211.544,178.256 212.044,177.423 213.5,177C 211.655,175.191 209.322,174.357 206.5,174.5C 223.799,172.534 240.799,174.534 257.5,180.5C 258.167,180.333 258.833,180.167 259.5,180C 259.272,179.601 258.938,179.435 258.5,179.5C 257.878,177.665 256.544,176.498 254.5,176C 254.833,173.667 255.167,171.333 255.5,169C 254.692,168.692 254.025,168.192 253.5,167.5C 254.485,165.902 254.651,164.235 254,162.5C 249.274,160.509 247.274,157.176 248,152.5C 246.933,151.809 245.766,151.309 244.5,151C 246.002,150.417 247.335,149.584 248.5,148.5C 247.082,147.466 245.415,146.799 243.5,146.5C 243.864,144.267 244.864,142.434 246.5,141C 245.333,139.833 244.167,138.667 243,137.5C 242.667,137.833 242.333,138.167 242,138.5C 241.544,137.256 242.044,136.423 243.5,136C 242.671,134.184 241.837,132.351 241,130.5C 240.333,131.167 239.667,131.833 239,132.5C 238.719,128.821 237.552,125.488 235.5,122.5C 236.025,121.808 236.692,121.308 237.5,121C 235.884,120.385 234.551,119.385 233.5,118C 234.738,118.077 235.738,117.911 236.5,117.5C 235.667,115.833 234.833,114.167 234,112.5C 233.851,115.279 233.017,115.779 231.5,114C 232.174,112.249 232.507,110.583 232.5,109C 231.643,108.311 230.977,107.478 230.5,106.5C 231.428,105.232 231.595,103.899 231,102.5C 230.223,104.701 229.056,104.701 227.5,102.5C 228.09,101.201 229.09,100.368 230.5,100C 229.5,99.6667 228.5,99.3333 227.5,99C 227.833,98.6667 228.167,98.3333 228.5,98C 225.922,95.8433 225.922,94.6767 228.5,94.5C 227.965,92.7295 227.131,92.3961 226,93.5C 225.383,92.5509 225.549,91.7175 226.5,91C 225.551,90.3828 224.718,90.5494 224,91.5C 223.383,90.5509 223.549,89.7175 224.5,89C 221.833,87.6667 221.833,86.3333 224.5,85C 222.947,83.9032 221.614,82.5699 220.5,81C 221.257,78.1524 220.257,75.819 217.5,74C 217.501,72.6012 217.835,71.1012 218.5,69.5C 216.665,68.5723 216.332,67.4056 217.5,66C 214.833,65.3333 214.833,64.6667 217.5,64C 217.018,62.5399 215.851,61.0399 214,59.5C 212.703,60.7836 211.536,60.6169 210.5,59C 211.833,58.6667 213.167,58.3333 214.5,58C 210.19,56.4969 209.856,54.8303 213.5,53C 212.33,51.2453 210.663,50.2453 208.5,50C 212.512,48.1967 212.178,47.1967 207.5,47C 210.786,45.965 211.12,44.465 208.5,42.5C 208.709,41.914 209.043,41.414 209.5,41C 207.662,37.5589 205.495,35.0589 203,33.5C 202.351,26.2558 200.685,19.2558 198,12.5C 197.501,8.17944 197.334,3.84611 197.5,-0.5 Z"/></g>
<g><path style="opacity:0.999" fill="#a964f0" d="M 227.5,-0.5 C 240.833,-0.5 254.167,-0.5 267.5,-0.5C 269.964,0.512157 271.631,2.34549 272.5,5C 273.765,6.98134 273.765,8.98134 272.5,11C 273.623,12.0437 274.956,12.7104 276.5,13C 275.167,13.6667 275.167,14.3333 276.5,15C 275.328,15.4186 274.328,16.0853 273.5,17C 273.952,18.6124 275.285,19.6124 277.5,20C 276.844,22.3304 277.844,23.9971 280.5,25C 280.043,25.414 279.709,25.914 279.5,26.5C 281.086,28.1727 281.753,30.1727 281.5,32.5C 280.448,32.3505 279.448,32.5172 278.5,33C 279.833,33.6667 281.167,34.3333 282.5,35C 283.833,35.6667 283.833,36.3333 282.5,37C 285.763,37.8695 286.096,39.2028 283.5,41C 284.641,41.7412 284.641,42.5745 283.5,43.5C 284.441,43.4895 285.108,43.9895 285.5,45C 285.355,45.772 285.022,46.4387 284.5,47C 287.668,47.5823 288.001,48.5823 285.5,50C 286.469,51.7583 287.636,52.2583 289,51.5C 289.202,53.2556 289.702,54.9223 290.5,56.5C 293.922,58.3935 294.256,59.7268 291.5,60.5C 293.946,61.9828 293.612,63.1495 290.5,64C 291.5,64.5 292.5,65 293.5,65.5C 294.426,68.044 295.426,70.544 296.5,73C 293.851,75.4366 294.517,76.77 298.5,77C 297.833,77.3333 297.167,77.6667 296.5,78C 298.527,79.3957 298.86,81.0624 297.5,83C 301.333,83.9409 302.666,86.1076 301.5,89.5C 301.848,91.6967 302.848,93.53 304.5,95C 303.655,96.5581 304.321,97.5581 306.5,98C 305.833,98.3333 305.167,98.6667 304.5,99C 306.006,101.425 307.673,103.758 309.5,106C 309.167,107 308.833,108 308.5,109C 309.167,109.333 309.833,109.667 310.5,110C 310.835,111.164 310.835,112.497 310.5,114C 313.167,114.667 313.167,115.333 310.5,116C 310.952,117.612 312.285,118.612 314.5,119C 313.833,119.333 313.167,119.667 312.5,120C 313.726,122.527 315.392,124.694 317.5,126.5C 316.559,126.489 315.892,126.989 315.5,128C 316.649,129.73 316.649,131.396 315.5,133C 316,133.5 316.5,134 317,134.5C 317.333,132.5 317.667,130.5 318,128.5C 318.573,132.848 319.24,137.181 320,141.5C 320.5,143.333 321.667,144.5 323.5,145C 322.692,145.308 322.025,145.808 321.5,146.5C 322.5,147.833 323.5,149.167 324.5,150.5C 323.975,151.192 323.308,151.692 322.5,152C 324.259,153.008 325.426,154.508 326,156.5C 326.654,155.304 327.154,155.304 327.5,156.5C 327.167,157.167 326.833,157.833 326.5,158.5C 328.822,159.936 329.489,161.77 328.5,164C 331.058,166.62 332.392,169.787 332.5,173.5C 336.056,173.275 336.39,174.108 333.5,176C 333.759,177.261 334.426,178.261 335.5,179C 335.167,179.333 334.833,179.667 334.5,180C 336.481,180.605 336.815,181.605 335.5,183C 336.094,183.464 336.761,183.631 337.5,183.5C 336.167,185.167 334.833,186.833 333.5,188.5C 319.833,188.5 306.167,188.5 292.5,188.5C 292.414,187.504 292.748,186.671 293.5,186C 292.5,185.667 291.5,185.333 290.5,185C 293.473,183.69 295.807,181.69 297.5,179C 297,178.5 296.5,178 296,177.5C 295.883,180.629 294.383,181.795 291.5,181C 293.405,180.174 293.739,179.007 292.5,177.5C 291.725,179.475 290.391,180.309 288.5,180C 292.191,177.401 293.025,174.234 291,170.5C 289.84,172.797 288.84,172.464 288,169.5C 287.667,170.167 287.333,170.833 287,171.5C 286.691,170.234 286.191,169.067 285.5,168C 286.883,166.729 287.883,165.229 288.5,163.5C 304.333,164.132 310.5,156.798 307,141.5C 300.917,133.025 293.25,131.358 284,136.5C 281.295,135.061 278.462,134.061 275.5,133.5C 274.653,132.034 273.32,131.2 271.5,131C 272.244,128.149 272.244,125.483 271.5,123C 274.71,121.818 275.21,119.985 273,117.5C 272.395,119.888 271.062,122.221 269,124.5C 267.325,122.409 266.825,120.242 267.5,118C 263.66,116.36 263.66,114.86 267.5,113.5C 266.535,112.086 265.535,111.253 264.5,111C 266.454,109.259 267.454,107.092 267.5,104.5C 266.325,104.719 265.325,104.386 264.5,103.5C 265.833,102.5 265.833,101.5 264.5,100.5C 267.298,98.4336 266.965,96.9336 263.5,96C 265.929,95.5488 266.096,94.7155 264,93.5C 262.414,94.376 260.914,95.376 259.5,96.5C 259.167,96 258.833,95.5 258.5,95C 259.424,93.85 259.424,92.85 258.5,92C 259.743,90.8455 260.743,89.5122 261.5,88C 259.775,88.4087 258.108,88.2421 256.5,87.5C 255.572,86.2322 255.405,84.8989 256,83.5C 256.333,84.1667 256.667,84.8333 257,85.5C 257.448,83.7756 258.282,83.109 259.5,83.5C 257.234,82.2837 255.234,80.7837 253.5,79C 254.272,77.779 255.272,76.779 256.5,76C 252.068,74.8354 251.735,73.3354 255.5,71.5C 255.333,71.1667 255.167,70.8333 255,70.5C 253.951,71.5171 252.784,71.6838 251.5,71C 254.456,67.7394 253.956,64.5728 250,61.5C 249.667,62.1667 249.333,62.8333 249,63.5C 248.985,61.2086 248.818,59.0419 248.5,57C 249.167,56.6667 249.833,56.3333 250.5,56C 249.167,55 249.167,54 250.5,53C 250,52.5 249.5,52 249,51.5C 248.49,53.5453 247.657,55.3787 246.5,57C 245.5,57.6667 244.5,57.6667 243.5,57C 247.02,54.7627 247.353,52.0961 244.5,49C 246.125,48.1475 246.458,47.1475 245.5,46C 246.744,45.5439 247.577,46.0439 248,47.5C 248.483,46.552 248.649,45.552 248.5,44.5C 245.86,44.046 243.527,42.8793 241.5,41C 242.517,39.9505 242.684,38.7839 242,37.5C 241.667,37.8333 241.333,38.1667 241,38.5C 240.355,37.354 239.522,36.354 238.5,35.5C 239.274,34.2888 240.107,34.2888 241,35.5C 241.991,33.5527 242.325,31.5527 242,29.5C 241.107,30.7112 240.274,30.7112 239.5,29.5C 238.855,28.2679 238.689,26.9346 239,25.5C 238.097,24.2986 236.931,23.4652 235.5,23C 236.536,21.3831 237.703,21.2164 239,22.5C 239.333,19.8333 238.333,19.1667 236,20.5C 235.261,18.7795 234.427,17.1128 233.5,15.5C 233.891,16.8905 233.058,17.8905 231,18.5C 230.5,18 230,17.5 229.5,17C 230.376,15.414 231.376,13.914 232.5,12.5C 231.431,12.3601 230.264,12.3601 229,12.5C 228.308,11.9747 227.808,11.3081 227.5,10.5C 229.155,10.1976 230.488,8.86424 231.5,6.5C 230.015,5.8277 228.849,6.49437 228,8.5C 227.5,8 227,7.5 226.5,7C 228.221,5.47285 230.221,4.47285 232.5,4C 230.939,3.68238 229.772,2.84905 229,1.5C 228.667,2.16667 228.333,2.83333 228,3.5C 227.51,2.20677 227.343,0.873441 227.5,-0.5 Z"/></g>
<g><path style="opacity:0.999" fill="#ac66f5" d="M 267.5,-0.5 C 277.833,-0.5 288.167,-0.5 298.5,-0.5C 298.337,1.85684 298.503,4.19018 299,6.5C 299.333,6.16667 299.667,5.83333 300,5.5C 300.273,8.39307 301.107,11.0597 302.5,13.5C 302.518,15.3726 302.018,15.7059 301,14.5C 299,15.5 299,16.5 301,17.5C 301.333,17.1667 301.667,16.8333 302,16.5C 302.957,19.022 304.457,21.1886 306.5,23C 306.043,23.414 305.709,23.914 305.5,24.5C 306.941,28.0731 308.608,31.5731 310.5,35C 307.972,36.3159 307.972,37.4826 310.5,38.5C 310.291,39.086 309.957,39.586 309.5,40C 311.208,42.0435 313.208,43.7101 315.5,45C 314.833,45.3333 314.167,45.6667 313.5,46C 314.386,47.2173 315.386,48.5507 316.5,50C 315.833,50.6667 315.167,51.3333 314.5,52C 315.861,53.5843 316.528,55.4176 316.5,57.5C 319.613,57.0646 320.279,58.0646 318.5,60.5C 318.954,64.1201 320.954,66.2867 324.5,67C 321.884,69.4215 321.884,70.9215 324.5,71.5C 323.5,72.3333 322.5,73.1667 321.5,74C 323.395,76.8065 325.728,79.1398 328.5,81C 327.833,81.3333 327.167,81.6667 326.5,82C 327.364,84.0713 328.697,85.738 330.5,87C 330.167,88.6667 329.833,90.3333 329.5,92C 331.224,94.2844 332.891,96.6177 334.5,99C 333.833,100 333.167,101 332.5,102C 333.667,102.5 334.5,103.333 335,104.5C 335.333,104.167 335.667,103.833 336,103.5C 336.122,105.437 336.955,106.77 338.5,107.5C 338.5,132.833 338.5,158.167 338.5,183.5C 338.167,183.5 337.833,183.5 337.5,183.5C 336.761,183.631 336.094,183.464 335.5,183C 336.815,181.605 336.481,180.605 334.5,180C 334.833,179.667 335.167,179.333 335.5,179C 334.426,178.261 333.759,177.261 333.5,176C 336.39,174.108 336.056,173.275 332.5,173.5C 332.392,169.787 331.058,166.62 328.5,164C 329.489,161.77 328.822,159.936 326.5,158.5C 326.833,157.833 327.167,157.167 327.5,156.5C 327.154,155.304 326.654,155.304 326,156.5C 325.426,154.508 324.259,153.008 322.5,152C 323.308,151.692 323.975,151.192 324.5,150.5C 323.5,149.167 322.5,147.833 321.5,146.5C 322.025,145.808 322.692,145.308 323.5,145C 321.667,144.5 320.5,143.333 320,141.5C 319.24,137.181 318.573,132.848 318,128.5C 317.667,130.5 317.333,132.5 317,134.5C 316.5,134 316,133.5 315.5,133C 316.649,131.396 316.649,129.73 315.5,128C 315.892,126.989 316.559,126.489 317.5,126.5C 315.392,124.694 313.726,122.527 312.5,120C 313.167,119.667 313.833,119.333 314.5,119C 312.285,118.612 310.952,117.612 310.5,116C 313.167,115.333 313.167,114.667 310.5,114C 310.835,112.497 310.835,111.164 310.5,110C 309.833,109.667 309.167,109.333 308.5,109C 308.833,108 309.167,107 309.5,106C 307.673,103.758 306.006,101.425 304.5,99C 305.167,98.6667 305.833,98.3333 306.5,98C 304.321,97.5581 303.655,96.5581 304.5,95C 302.848,93.53 301.848,91.6967 301.5,89.5C 302.666,86.1076 301.333,83.9409 297.5,83C 298.86,81.0624 298.527,79.3957 296.5,78C 297.167,77.6667 297.833,77.3333 298.5,77C 294.517,76.77 293.851,75.4366 296.5,73C 295.426,70.544 294.426,68.044 293.5,65.5C 292.5,65 291.5,64.5 290.5,64C 293.612,63.1495 293.946,61.9828 291.5,60.5C 294.256,59.7268 293.922,58.3935 290.5,56.5C 289.702,54.9223 289.202,53.2556 289,51.5C 287.636,52.2583 286.469,51.7583 285.5,50C 288.001,48.5823 287.668,47.5823 284.5,47C 285.022,46.4387 285.355,45.772 285.5,45C 285.108,43.9895 284.441,43.4895 283.5,43.5C 284.641,42.5745 284.641,41.7412 283.5,41C 286.096,39.2028 285.763,37.8695 282.5,37C 283.833,36.3333 283.833,35.6667 282.5,35C 281.167,34.3333 279.833,33.6667 278.5,33C 279.448,32.5172 280.448,32.3505 281.5,32.5C 281.753,30.1727 281.086,28.1727 279.5,26.5C 279.709,25.914 280.043,25.414 280.5,25C 277.844,23.9971 276.844,22.3304 277.5,20C 275.285,19.6124 273.952,18.6124 273.5,17C 274.328,16.0853 275.328,15.4186 276.5,15C 275.167,14.3333 275.167,13.6667 276.5,13C 274.956,12.7104 273.623,12.0437 272.5,11C 273.765,8.98134 273.765,6.98134 272.5,5C 271.631,2.34549 269.964,0.512157 267.5,-0.5 Z"/></g>
<g><path style="opacity:0.999" fill="#b067fa" d="M 298.5,-0.5 C 310.167,-0.5 321.833,-0.5 333.5,-0.5C 334.833,1.5 336.5,3.16667 338.5,4.5C 338.5,38.8333 338.5,73.1667 338.5,107.5C 336.955,106.77 336.122,105.437 336,103.5C 335.667,103.833 335.333,104.167 335,104.5C 334.5,103.333 333.667,102.5 332.5,102C 333.167,101 333.833,100 334.5,99C 332.891,96.6177 331.224,94.2844 329.5,92C 329.833,90.3333 330.167,88.6667 330.5,87C 328.697,85.738 327.364,84.0713 326.5,82C 327.167,81.6667 327.833,81.3333 328.5,81C 325.728,79.1398 323.395,76.8065 321.5,74C 322.5,73.1667 323.5,72.3333 324.5,71.5C 321.884,70.9215 321.884,69.4215 324.5,67C 320.954,66.2867 318.954,64.1201 318.5,60.5C 320.279,58.0646 319.613,57.0646 316.5,57.5C 316.528,55.4176 315.861,53.5843 314.5,52C 315.167,51.3333 315.833,50.6667 316.5,50C 315.386,48.5507 314.386,47.2173 313.5,46C 314.167,45.6667 314.833,45.3333 315.5,45C 313.208,43.7101 311.208,42.0435 309.5,40C 309.957,39.586 310.291,39.086 310.5,38.5C 307.972,37.4826 307.972,36.3159 310.5,35C 308.608,31.5731 306.941,28.0731 305.5,24.5C 305.709,23.914 306.043,23.414 306.5,23C 304.457,21.1886 302.957,19.022 302,16.5C 301.667,16.8333 301.333,17.1667 301,17.5C 299,16.5 299,15.5 301,14.5C 302.018,15.7059 302.518,15.3726 302.5,13.5C 301.107,11.0597 300.273,8.39307 300,5.5C 299.667,5.83333 299.333,6.16667 299,6.5C 298.503,4.19018 298.337,1.85684 298.5,-0.5 Z"/></g>
<g><path style="opacity:0.013" fill="#f4ecfc" d="M 333.5,-0.5 C 335.167,-0.5 336.833,-0.5 338.5,-0.5C 338.5,1.16667 338.5,2.83333 338.5,4.5C 336.5,3.16667 334.833,1.5 333.5,-0.5 Z"/></g>
<g><path style="opacity:0.058" fill="#f0eff1" d="M -0.5,-0.5 C 1.83333,-0.5 4.16667,-0.5 6.5,-0.5C 4.49981,1.67098 2.66647,4.00432 1,6.5C 0.500022,35.8314 0.333355,65.1648 0.5,94.5C 0.333356,123.169 0.500023,151.835 1,180.5C 2.24334,183.576 4.07667,186.243 6.5,188.5C 4.16667,188.5 1.83333,188.5 -0.5,188.5C -0.5,125.5 -0.5,62.5 -0.5,-0.5 Z"/></g>
<g><path style="opacity:0.999" fill="#9f61e4" d="M 151.5,-0.5 C 166.833,-0.5 182.167,-0.5 197.5,-0.5C 197.334,3.84611 197.501,8.17944 198,12.5C 200.685,19.2558 202.351,26.2558 203,33.5C 205.495,35.0589 207.662,37.5589 209.5,41C 209.043,41.414 208.709,41.914 208.5,42.5C 211.12,44.465 210.786,45.965 207.5,47C 212.178,47.1967 212.512,48.1967 208.5,50C 210.663,50.2453 212.33,51.2453 213.5,53C 209.856,54.8303 210.19,56.4969 214.5,58C 213.167,58.3333 211.833,58.6667 210.5,59C 211.536,60.6169 212.703,60.7836 214,59.5C 215.851,61.0399 217.018,62.5399 217.5,64C 214.833,64.6667 214.833,65.3333 217.5,66C 216.332,67.4056 216.665,68.5723 218.5,69.5C 217.835,71.1012 217.501,72.6012 217.5,74C 220.257,75.819 221.257,78.1524 220.5,81C 221.614,82.5699 222.947,83.9032 224.5,85C 221.833,86.3333 221.833,87.6667 224.5,89C 223.549,89.7175 223.383,90.5509 224,91.5C 224.718,90.5494 225.551,90.3828 226.5,91C 225.549,91.7175 225.383,92.5509 226,93.5C 227.131,92.3961 227.965,92.7295 228.5,94.5C 225.922,94.6767 225.922,95.8433 228.5,98C 228.167,98.3333 227.833,98.6667 227.5,99C 228.5,99.3333 229.5,99.6667 230.5,100C 229.09,100.368 228.09,101.201 227.5,102.5C 229.056,104.701 230.223,104.701 231,102.5C 231.595,103.899 231.428,105.232 230.5,106.5C 230.977,107.478 231.643,108.311 232.5,109C 232.507,110.583 232.174,112.249 231.5,114C 233.017,115.779 233.851,115.279 234,112.5C 234.833,114.167 235.667,115.833 236.5,117.5C 235.738,117.911 234.738,118.077 233.5,118C 234.551,119.385 235.884,120.385 237.5,121C 236.692,121.308 236.025,121.808 235.5,122.5C 237.552,125.488 238.719,128.821 239,132.5C 239.667,131.833 240.333,131.167 241,130.5C 241.837,132.351 242.671,134.184 243.5,136C 242.044,136.423 241.544,137.256 242,138.5C 242.333,138.167 242.667,137.833 243,137.5C 244.167,138.667 245.333,139.833 246.5,141C 244.864,142.434 243.864,144.267 243.5,146.5C 245.415,146.799 247.082,147.466 248.5,148.5C 247.335,149.584 246.002,150.417 244.5,151C 245.766,151.309 246.933,151.809 248,152.5C 247.274,157.176 249.274,160.509 254,162.5C 254.651,164.235 254.485,165.902 253.5,167.5C 254.025,168.192 254.692,168.692 255.5,169C 255.167,171.333 254.833,173.667 254.5,176C 256.544,176.498 257.878,177.665 258.5,179.5C 242.739,173.417 226.406,171.083 209.5,172.5C 209.082,171.778 208.416,171.278 207.5,171C 208.745,168.749 208.745,166.582 207.5,164.5C 206.687,163.186 205.687,162.019 204.5,161C 205.167,160.333 205.833,159.667 206.5,159C 203.742,156.991 203.408,154.991 205.5,153C 204.751,151.266 204.251,149.433 204,147.5C 203.526,152.627 202.526,152.627 201,147.5C 200.667,147.833 200.333,148.167 200,148.5C 199.333,147.5 199.333,146.5 200,145.5C 200.718,146.451 201.551,146.617 202.5,146C 201.315,144.647 199.981,143.48 198.5,142.5C 199.058,139.346 198.058,136.513 195.5,134C 196.471,131.156 196.471,128.156 195.5,125C 193.884,124.385 192.551,123.385 191.5,122C 193.901,121.195 193.734,120.362 191,119.5C 188.837,115.017 186.67,110.517 184.5,106C 185.5,105.667 186.5,105.333 187.5,105C 186.323,102.281 184.657,100.781 182.5,100.5C 183.5,99.6667 184.5,98.8333 185.5,98C 184.551,97.3828 183.718,97.5494 183,98.5C 182.568,95.8634 181.734,93.03 180.5,90C 181.431,87.5252 180.431,85.8585 177.5,85C 181.131,81.9923 180.797,80.3256 176.5,80C 176.833,79 177.167,78 177.5,77C 175.395,75.6646 174.729,73.9979 175.5,72C 174.273,68.8102 172.607,66.6435 170.5,65.5C 173.12,63.535 172.786,62.035 169.5,61C 171.5,60 173.5,59 175.5,58C 173.433,57.4644 171.599,57.9644 170,59.5C 167.762,57.6909 166.595,55.3576 166.5,52.5C 168.681,52.7163 170.347,51.883 171.5,50C 169.744,49.8595 168.078,50.3595 166.5,51.5C 165.719,50.2713 165.219,48.938 165,47.5C 164.683,49.3008 164.016,49.6341 163,48.5C 162.691,47.2341 162.191,46.0674 161.5,45C 163.116,44.3848 164.449,43.3848 165.5,42C 163.497,42.4192 161.497,43.2526 159.5,44.5C 157.997,43.4099 157.664,42.2433 158.5,41C 157.833,40.6667 157.167,40.3333 156.5,40C 158.616,38.8293 159.282,37.3293 158.5,35.5C 164.087,28.0398 165.92,19.7065 164,10.5C 163.986,16.6835 162.986,22.6835 161,28.5C 155.355,34.3936 154.188,33.5602 157.5,26C 155.954,24.5604 155.121,22.7271 155,20.5C 153.984,19.3659 153.317,19.6992 153,21.5C 152.636,14.1484 152.136,6.81507 151.5,-0.5 Z"/></g>
<g><path style="opacity:0.999" fill="#9a5fdd" d="M 101.5,-0.5 C 118.167,-0.5 134.833,-0.5 151.5,-0.5C 152.136,6.81507 152.636,14.1484 153,21.5C 153.317,19.6992 153.984,19.3659 155,20.5C 155.121,22.7271 155.954,24.5604 157.5,26C 154.188,33.5602 155.355,34.3936 161,28.5C 162.986,22.6835 163.986,16.6835 164,10.5C 165.92,19.7065 164.087,28.0398 158.5,35.5C 159.282,37.3293 158.616,38.8293 156.5,40C 157.167,40.3333 157.833,40.6667 158.5,41C 157.664,42.2433 157.997,43.4099 159.5,44.5C 161.497,43.2526 163.497,42.4192 165.5,42C 164.449,43.3848 163.116,44.3848 161.5,45C 162.191,46.0674 162.691,47.2341 163,48.5C 164.016,49.6341 164.683,49.3008 165,47.5C 165.219,48.938 165.719,50.2713 166.5,51.5C 168.078,50.3595 169.744,49.8595 171.5,50C 170.347,51.883 168.681,52.7163 166.5,52.5C 166.595,55.3576 167.762,57.6909 170,59.5C 171.599,57.9644 173.433,57.4644 175.5,58C 173.5,59 171.5,60 169.5,61C 172.786,62.035 173.12,63.535 170.5,65.5C 172.607,66.6435 174.273,68.8102 175.5,72C 174.729,73.9979 175.395,75.6646 177.5,77C 177.167,78 176.833,79 176.5,80C 180.797,80.3256 181.131,81.9923 177.5,85C 180.431,85.8585 181.431,87.5252 180.5,90C 181.734,93.03 182.568,95.8634 183,98.5C 183.718,97.5494 184.551,97.3828 185.5,98C 184.5,98.8333 183.5,99.6667 182.5,100.5C 184.657,100.781 186.323,102.281 187.5,105C 186.5,105.333 185.5,105.667 184.5,106C 186.67,110.517 188.837,115.017 191,119.5C 193.734,120.362 193.901,121.195 191.5,122C 192.551,123.385 193.884,124.385 195.5,125C 196.471,128.156 196.471,131.156 195.5,134C 198.058,136.513 199.058,139.346 198.5,142.5C 199.981,143.48 201.315,144.647 202.5,146C 201.551,146.617 200.718,146.451 200,145.5C 199.333,146.5 199.333,147.5 200,148.5C 200.333,148.167 200.667,147.833 201,147.5C 202.526,152.627 203.526,152.627 204,147.5C 204.251,149.433 204.751,151.266 205.5,153C 203.408,154.991 203.742,156.991 206.5,159C 205.833,159.667 205.167,160.333 204.5,161C 205.687,162.019 206.687,163.186 207.5,164.5C 208.745,166.582 208.745,168.749 207.5,171C 208.416,171.278 209.082,171.778 209.5,172.5C 197.541,173.995 185.541,174.995 173.5,175.5C 173.657,174.127 173.49,172.793 173,171.5C 172.086,172.654 171.253,172.487 170.5,171C 171.5,170 172.5,169 173.5,168C 172.5,167 171.5,166 170.5,165C 171.833,164.667 173.167,164.333 174.5,164C 172.381,163.993 170.547,162.826 169,160.5C 167.308,156.765 165.974,153.098 165,149.5C 161.526,150.928 161.026,150.428 163.5,148C 162.953,147.075 162.287,146.242 161.5,145.5C 160.604,146.506 159.938,146.506 159.5,145.5C 161.51,144.935 163.176,143.935 164.5,142.5C 162.776,141.967 161.109,140.801 159.5,139C 160.167,138.333 160.833,137.667 161.5,137C 159.234,136.068 157.234,134.734 155.5,133C 156.815,131.605 156.481,130.605 154.5,130C 155.833,128.667 157.167,127.333 158.5,126C 157.251,124.176 156.085,124.343 155,126.5C 154.89,124.152 153.723,122.652 151.5,122C 153.833,122.333 156.167,122.667 158.5,123C 156.517,121.886 154.85,120.386 153.5,118.5C 153.846,117.304 154.346,117.304 155,118.5C 155.483,117.552 155.649,116.552 155.5,115.5C 154.167,115.5 152.833,115.5 151.5,115.5C 151.785,110.298 150.951,105.631 149,101.5C 148.549,103.929 147.715,104.096 146.5,102C 148.422,100.54 149.089,98.8733 148.5,97C 147.437,95.8118 146.103,95.3118 144.5,95.5C 144.5,94.5 144.5,93.5 144.5,92.5C 139.498,93.6021 139.164,92.2688 143.5,88.5C 142.011,87.0198 140.345,86.1865 138.5,86C 143.457,81.9836 142.79,78.817 136.5,76.5C 135.833,76.8333 135.167,77.1667 134.5,77.5C 133.548,75.9547 133.215,74.288 133.5,72.5C 138.392,73.1243 139.558,71.4576 137,67.5C 136.779,70.9431 135.779,71.2764 134,68.5C 133.667,68.8333 133.333,69.1667 133,69.5C 132.312,68.6683 132.479,68.0016 133.5,67.5C 140.5,64.3333 147.5,61.1667 154.5,58C 147.037,59.8051 139.87,62.6385 133,66.5C 130.266,65.6383 130.099,64.805 132.5,64C 131.552,63.5172 130.552,63.3505 129.5,63.5C 129.5,62.5 129.5,61.5 129.5,60.5C 136.513,57.4369 143.513,54.2702 150.5,51C 150,50.8333 149.5,50.6667 149,50.5C 142.615,53.4612 136.115,56.1279 129.5,58.5C 122.915,56.8881 122.915,55.0547 129.5,53C 129,52.8333 128.5,52.6667 128,52.5C 121.552,55.3078 115.052,57.9745 108.5,60.5C 104.842,59.1241 104.509,57.1241 107.5,54.5C 115.446,51.1939 123.112,47.3606 130.5,43C 129.906,42.5357 129.239,42.369 128.5,42.5C 126.559,41.3259 125.059,39.6592 124,37.5C 124.077,38.7376 123.911,39.7376 123.5,40.5C 122.756,39.0095 122.09,37.5095 121.5,36C 125.703,31.6227 129.37,26.7894 132.5,21.5C 132.154,20.3044 131.654,20.3044 131,21.5C 127.549,28.3045 122.383,32.8045 115.5,35C 116.293,33.9148 116.96,32.7481 117.5,31.5C 116.422,29.5988 115.422,28.0988 114.5,27C 114.645,25.7741 114.978,24.6074 115.5,23.5C 113.935,19.3132 113.268,14.9798 113.5,10.5C 111.799,10.0338 110.299,10.0338 109,10.5C 108.383,9.55085 108.549,8.71752 109.5,8C 108.109,6.34991 106.609,5.84991 105,6.5C 104.544,5.25591 105.044,4.42258 106.5,4C 104.077,3.30294 102.411,1.80294 101.5,-0.5 Z"/></g>
<g><path style="opacity:0.999" fill="#925cd2" d="M 30.5,-0.5 C 43.5,-0.5 56.5,-0.5 69.5,-0.5C 70.9526,0.824868 70.6192,1.6582 68.5,2C 69.624,2.24917 70.624,2.74917 71.5,3.5C 71.9702,5.77379 72.9702,7.77379 74.5,9.5C 74.2895,13.7286 74.2895,17.562 74.5,21C 75.9047,22.2692 77.5714,22.7692 79.5,22.5C 78.5139,26.7394 79.5139,30.5728 82.5,34C 81.3659,35.016 81.6992,35.6827 83.5,36C 80.7124,38.3738 81.0458,39.7071 84.5,40C 84.0509,42.2293 84.0509,43.896 84.5,45C 85.4491,45.6172 86.2825,45.4506 87,44.5C 87.7724,45.8491 88.9391,46.6824 90.5,47C 89.1667,47.6667 87.8333,48.3333 86.5,49C 87.4162,49.3742 88.2496,49.8742 89,50.5C 96.7531,46.5345 104.586,43.0345 112.5,40C 105.779,44.0272 98.7788,47.5272 91.5,50.5C 90.2888,51.2739 90.2888,52.1072 91.5,53C 90.376,53.2492 89.376,53.7492 88.5,54.5C 89.2624,54.9106 90.2624,55.0773 91.5,55C 90.1854,56.3946 90.5188,57.3946 92.5,58C 97.0272,57.5851 101.36,56.2518 105.5,54C 113.506,50.6635 121.173,46.8302 128.5,42.5C 129.239,42.369 129.906,42.5357 130.5,43C 123.112,47.3606 115.446,51.1939 107.5,54.5C 104.509,57.1241 104.842,59.1241 108.5,60.5C 115.052,57.9745 121.552,55.3078 128,52.5C 128.5,52.6667 129,52.8333 129.5,53C 122.915,55.0547 122.915,56.8881 129.5,58.5C 136.115,56.1279 142.615,53.4612 149,50.5C 149.5,50.6667 150,50.8333 150.5,51C 143.513,54.2702 136.513,57.4369 129.5,60.5C 119.286,64.6059 109.286,69.2726 99.5,74.5C 99.3903,76.0982 99.057,77.7648 98.5,79.5C 98.9767,80.4776 99.6433,81.3109 100.5,82C 99.1118,82.8893 99.2785,83.3893 101,83.5C 107.362,79.6495 113.862,75.9828 120.5,72.5C 120.833,72.6667 121.167,72.8333 121.5,73C 116.792,74.9597 114.959,78.1263 116,82.5C 116.414,82.0426 116.914,81.7093 117.5,81.5C 117.296,82.5294 117.796,83.5294 119,84.5C 119.667,81.8333 120.333,81.8333 121,84.5C 123.149,82.3391 125.649,81.1724 128.5,81C 103.086,97.5864 99.5858,118.086 118,142.5C 125.415,150.753 133.582,158.086 142.5,164.5C 137.015,162.193 132.182,158.86 128,154.5C 127.342,156.108 127.842,157.275 129.5,158C 128.833,158.333 128.167,158.667 127.5,159C 127.888,160.808 127.888,162.475 127.5,164C 129.819,164.225 131.819,165.558 133.5,168C 130.447,171.709 131.447,173.709 136.5,174C 135.833,174.333 135.167,174.667 134.5,175C 135.833,177 135.833,179 134.5,181C 136.301,181.317 136.634,181.984 135.5,183C 136.167,183.333 136.833,183.667 137.5,184C 136.167,184.667 136.167,185.333 137.5,186C 139.315,186.757 140.981,187.59 142.5,188.5C 129.833,188.5 117.167,188.5 104.5,188.5C 104.005,186.176 104.005,184.009 104.5,182C 104.167,181.5 103.833,181 103.5,180.5C 99.6443,181.934 98.811,180.934 101,177.5C 101.654,178.696 102.154,178.696 102.5,177.5C 100.639,176.472 99.3052,174.972 98.5,173C 99.1667,172.333 99.8333,171.667 100.5,171C 98.4476,170.07 96.9476,168.57 96,166.5C 95.342,164.892 95.842,163.725 97.5,163C 95,162.167 94.8333,161 97,159.5C 99.8333,162.333 102.667,165.167 105.5,168C 106.167,168.667 106.833,168.667 107.5,168C 100.593,161.764 94.4267,154.931 89,147.5C 88.3162,146.216 88.4829,145.049 89.5,144C 86.8333,142.667 86.8333,141.333 89.5,140C 87.8333,139 86.1667,138 84.5,137C 85.8333,137 87.1667,137 88.5,137C 87.8333,135 86.5,133.667 84.5,133C 84.8333,132 85.1667,131 85.5,130C 84.2986,129.097 83.4652,127.931 83,126.5C 82.6667,127.167 82.3333,127.833 82,128.5C 81.7508,127.376 81.2508,126.376 80.5,125.5C 79.6921,118.844 79.5254,112.177 80,105.5C 78.6667,105.5 77.3333,105.5 76,105.5C 75.6924,106.308 75.1924,106.975 74.5,107.5C 74.7615,105.868 73.7615,104.701 71.5,104C 72.428,103.612 73.0946,102.945 73.5,102C 72.3802,100.263 71.3802,98.4292 70.5,96.5C 72.1376,95.2954 72.4709,93.9621 71.5,92.5C 73.269,90.443 75.269,88.6097 77.5,87C 76.8333,86.3333 76.1667,86.3333 75.5,87C 72.3223,89.5139 69.1556,92.0139 66,94.5C 64.8315,93.9915 63.9981,93.1581 63.5,92C 64.5171,90.9505 64.6838,89.7839 64,88.5C 62.6361,89.2583 61.4695,88.7583 60.5,87C 62.5,85.6667 64.5,84.3333 66.5,83C 65.451,82.5078 64.451,82.6744 63.5,83.5C 62.0878,82.1936 60.4211,81.3603 58.5,81C 59.4706,79.7964 60.4706,79.2964 61.5,79.5C 58.9244,78.1166 59.2577,77.2833 62.5,77C 60.7091,76.5848 59.3757,75.5848 58.5,74C 59.1667,73.6667 59.8333,73.3333 60.5,73C 59.2341,72.6905 58.0674,72.1905 57,71.5C 57.1953,69.8739 57.1953,68.2072 57,66.5C 56.4387,67.0219 55.772,67.3552 55,67.5C 53.2382,67.0556 53.4049,66.5556 55.5,66C 54.1667,65.6667 52.8333,65.3333 51.5,65C 53.2134,63.6218 54.5467,61.9552 55.5,60C 53.5,59.3333 51.5,58.6667 49.5,58C 50.1667,57.6667 50.8333,57.3333 51.5,57C 50.5494,56.2825 50.3828,55.4491 51,54.5C 51.6543,55.6956 52.1543,55.6956 52.5,54.5C 51.9017,53.2054 51.4017,51.8721 51,50.5C 50.6667,50.8333 50.3333,51.1667 50,51.5C 47.5926,49.2343 46.4259,46.7343 46.5,44C 46.9054,43.0546 47.572,42.3879 48.5,42C 44.6034,41.1926 43.9368,39.5259 46.5,37C 43.5692,36.1415 42.5692,34.4748 43.5,32C 42.7113,30.3745 41.7113,28.8745 40.5,27.5C 41.0253,26.8076 41.6919,26.3076 42.5,26C 41.107,23.8219 39.4404,22.8219 37.5,23C 38.7111,21.8869 38.7111,20.7202 37.5,19.5C 38.1667,19.1667 38.8333,18.8333 39.5,18.5C 38.9598,17.2519 38.2931,16.0852 37.5,15C 37.8333,14.6667 38.1667,14.3333 38.5,14C 37.0039,13.4926 35.8373,13.9926 35,15.5C 32.6514,13.2557 33.1514,12.0891 36.5,12C 35.6383,9.26561 34.805,9.09894 34,11.5C 33.6824,9.93908 32.8491,8.77241 31.5,8C 32.5,7.66667 33.5,7.33333 34.5,7C 32.5038,4.83767 31.1705,2.33767 30.5,-0.5 Z"/></g>
<g><path style="opacity:1" fill="#965cd8" d="M 173.5,175.5 C 162.356,174.008 152.023,170.342 142.5,164.5C 133.582,158.086 125.415,150.753 118,142.5C 99.5858,118.086 103.086,97.5864 128.5,81C 125.649,81.1724 123.149,82.3391 121,84.5C 120.333,81.8333 119.667,81.8333 119,84.5C 117.796,83.5294 117.296,82.5294 117.5,81.5C 116.914,81.7093 116.414,82.0426 116,82.5C 114.959,78.1263 116.792,74.9597 121.5,73C 121.167,72.8333 120.833,72.6667 120.5,72.5C 113.862,75.9828 107.362,79.6495 101,83.5C 99.2785,83.3893 99.1118,82.8893 100.5,82C 99.6433,81.3109 98.9767,80.4776 98.5,79.5C 99.057,77.7648 99.3903,76.0982 99.5,74.5C 109.286,69.2726 119.286,64.6059 129.5,60.5C 129.5,61.5 129.5,62.5 129.5,63.5C 130.552,63.3505 131.552,63.5172 132.5,64C 130.099,64.805 130.266,65.6383 133,66.5C 139.87,62.6385 147.037,59.8051 154.5,58C 147.5,61.1667 140.5,64.3333 133.5,67.5C 132.479,68.0016 132.312,68.6683 133,69.5C 133.333,69.1667 133.667,68.8333 134,68.5C 135.779,71.2764 136.779,70.9431 137,67.5C 139.558,71.4576 138.392,73.1243 133.5,72.5C 133.215,74.288 133.548,75.9547 134.5,77.5C 135.167,77.1667 135.833,76.8333 136.5,76.5C 142.79,78.817 143.457,81.9836 138.5,86C 140.345,86.1865 142.011,87.0198 143.5,88.5C 139.164,92.2688 139.498,93.6021 144.5,92.5C 144.5,93.5 144.5,94.5 144.5,95.5C 146.103,95.3118 147.437,95.8118 148.5,97C 149.089,98.8733 148.422,100.54 146.5,102C 147.715,104.096 148.549,103.929 149,101.5C 150.951,105.631 151.785,110.298 151.5,115.5C 152.833,115.5 154.167,115.5 155.5,115.5C 155.649,116.552 155.483,117.552 155,118.5C 154.346,117.304 153.846,117.304 153.5,118.5C 154.85,120.386 156.517,121.886 158.5,123C 156.167,122.667 153.833,122.333 151.5,122C 153.723,122.652 154.89,124.152 155,126.5C 156.085,124.343 157.251,124.176 158.5,126C 157.167,127.333 155.833,128.667 154.5,130C 156.481,130.605 156.815,131.605 155.5,133C 157.234,134.734 159.234,136.068 161.5,137C 160.833,137.667 160.167,138.333 159.5,139C 161.109,140.801 162.776,141.967 164.5,142.5C 163.176,143.935 161.51,144.935 159.5,145.5C 159.938,146.506 160.604,146.506 161.5,145.5C 162.287,146.242 162.953,147.075 163.5,148C 161.026,150.428 161.526,150.928 165,149.5C 165.974,153.098 167.308,156.765 169,160.5C 170.547,162.826 172.381,163.993 174.5,164C 173.167,164.333 171.833,164.667 170.5,165C 171.5,166 172.5,167 173.5,168C 172.5,169 171.5,170 170.5,171C 171.253,172.487 172.086,172.654 173,171.5C 173.49,172.793 173.657,174.127 173.5,175.5 Z"/></g>
<g><path style="opacity:0.999" fill="#8857c5" d="M 61.5,188.5 C 43.1667,188.5 24.8333,188.5 6.5,188.5C 4.07667,186.243 2.24334,183.576 1,180.5C 0.500023,151.835 0.333356,123.169 0.5,94.5C 6.77774,90.6891 13.1111,86.8558 19.5,83C 21.4021,81.6989 23.4021,81.0322 25.5,81C 20.5835,82.9574 17.9168,86.2907 17.5,91C 18.3859,92.2173 19.3859,93.5507 20.5,95C 19.6919,95.3076 19.0253,95.8076 18.5,96.5C 19.9186,99.4179 22.2519,100.918 25.5,101C 23.1224,101.974 23.4557,102.641 26.5,103C 25.4829,104.049 25.3162,105.216 26,106.5C 26.414,106.043 26.914,105.709 27.5,105.5C 28.354,106.522 29.354,107.355 30.5,108C 29.5,108.333 28.5,108.667 27.5,109C 29.3409,110.866 31.0076,112.866 32.5,115C 28.6658,123.18 27.8324,131.68 30,140.5C 30.4994,134.843 30.6661,129.176 30.5,123.5C 32.8421,123.504 34.8421,124.337 36.5,126C 34.4873,126.875 34.4873,128.209 36.5,130C 34.0712,130.451 33.9045,131.285 36,132.5C 38.4277,130.026 38.9277,130.526 37.5,134C 43.9545,133.804 43.9545,134.471 37.5,136C 40.1242,136.576 40.7908,137.91 39.5,140C 41.9245,142.345 43.0912,145.178 43,148.5C 42.5774,147.044 41.7441,146.544 40.5,147C 41.6405,147.741 41.6405,148.575 40.5,149.5C 42.3348,150.428 42.6682,151.594 41.5,153C 43.0474,155.326 44.8807,156.493 47,156.5C 47.3333,157.833 47.6667,159.167 48,160.5C 48.3333,160.167 48.6667,159.833 49,159.5C 48.0148,162.334 47.5148,165.167 47.5,168C 50.5,171.667 53.8333,175 57.5,178C 57.1667,179 56.8333,180 56.5,181C 59.1667,181.667 59.1667,182.333 56.5,183C 58.3734,184.704 60.0401,186.537 61.5,188.5 Z"/></g>
<g><path style="opacity:1" fill="#bb89f1" d="M 275.5,133.5 C 278.462,134.061 281.295,135.061 284,136.5C 293.25,131.358 300.917,133.025 307,141.5C 310.5,156.798 304.333,164.132 288.5,163.5C 287.166,162.348 285.666,161.348 284,160.5C 270.125,166.776 261.958,162.443 259.5,147.5C 260.74,138.265 266.073,133.598 275.5,133.5 Z"/></g>
<g><path style="opacity:0.999" fill="#cca6f4" d="M 282.5,137.5 C 285.292,137.452 287.125,138.785 288,141.5C 290.874,148.621 289.541,154.621 284,159.5C 280.169,156.777 278.335,152.944 278.5,148C 279.137,144.228 280.47,140.728 282.5,137.5 Z"/></g>
<g><path style="opacity:0.999" fill="#965dd8" d="M 142.5,164.5 C 149.744,170.451 158.077,174.285 167.5,176C 180.549,176.701 193.549,176.201 206.5,174.5C 209.322,174.357 211.655,175.191 213.5,177C 212.044,177.423 211.544,178.256 212,179.5C 213.016,180.634 213.683,180.301 214,178.5C 214.45,180.519 215.283,182.352 216.5,184C 216.043,184.414 215.709,184.914 215.5,185.5C 218.184,186.753 220.85,187.753 223.5,188.5C 196.5,188.5 169.5,188.5 142.5,188.5C 140.981,187.59 139.315,186.757 137.5,186C 136.167,185.333 136.167,184.667 137.5,184C 136.833,183.667 136.167,183.333 135.5,183C 136.634,181.984 136.301,181.317 134.5,181C 135.833,179 135.833,177 134.5,175C 135.167,174.667 135.833,174.333 136.5,174C 131.447,173.709 130.447,171.709 133.5,168C 131.819,165.558 129.819,164.225 127.5,164C 127.888,162.475 127.888,160.808 127.5,159C 128.167,158.667 128.833,158.333 129.5,158C 127.842,157.275 127.342,156.108 128,154.5C 132.182,158.86 137.015,162.193 142.5,164.5 Z"/></g>
<g><path style="opacity:1" fill="#a36de1" d="M 142.5,164.5 C 152.023,170.342 162.356,174.008 173.5,175.5C 185.541,174.995 197.541,173.995 209.5,172.5C 226.406,171.083 242.739,173.417 258.5,179.5C 258.938,179.435 259.272,179.601 259.5,180C 258.833,180.167 258.167,180.333 257.5,180.5C 240.799,174.534 223.799,172.534 206.5,174.5C 193.549,176.201 180.549,176.701 167.5,176C 158.077,174.285 149.744,170.451 142.5,164.5 Z"/></g>
<g><path style="opacity:0.06" fill="#e9e1f0" d="M 337.5,183.5 C 337.833,183.5 338.167,183.5 338.5,183.5C 338.5,185.167 338.5,186.833 338.5,188.5C 336.833,188.5 335.167,188.5 333.5,188.5C 334.833,186.833 336.167,185.167 337.5,183.5 Z"/></g>
</svg>
