<svg xmlns="http://www.w3.org/2000/svg" xmlns:xlink="http://www.w3.org/1999/xlink" width="500" zoomAndPan="magnify" viewBox="0 0 375 374.999991" height="500" preserveAspectRatio="xMidYMid meet" version="1.0"><defs><clipPath id="4b169f82cb"><path d="M 261 243 L 319 243 L 319 358.617188 L 261 358.617188 Z M 261 243 " clip-rule="nonzero"/></clipPath><clipPath id="82f9f4c97b"><path d="M 204 244 L 290 244 L 290 358.617188 L 204 358.617188 Z M 204 244 " clip-rule="nonzero"/></clipPath><clipPath id="3104802acd"><path d="M 203 243 L 247 243 L 247 358.617188 L 203 358.617188 Z M 203 243 " clip-rule="nonzero"/></clipPath><clipPath id="4186e0b3f9"><path d="M 27 246 L 113 246 L 113 358.617188 L 27 358.617188 Z M 27 246 " clip-rule="nonzero"/></clipPath><clipPath id="960f8a8aea"><path d="M 27 245 L 114 245 L 114 358.617188 L 27 358.617188 Z M 27 245 " clip-rule="nonzero"/></clipPath></defs><path fill="#000000" d="M 224.707031 90.929688 L 225.816406 52.542969 C 225.988281 45.882812 232.457031 41.210938 238.871094 43.109375 C 245.285156 45.007812 248.164062 52.449219 244.679688 58.128906 L 224.707031 90.929688 " fill-opacity="1" fill-rule="nonzero"/><path fill="#4ada85" d="M 230.382812 239.167969 L 92.480469 198.339844 L 143.066406 27.53125 L 280.972656 68.363281 L 230.382812 239.167969 " fill-opacity="1" fill-rule="nonzero"/><path fill="#000000" d="M 92.976562 198.070312 L 230.117188 238.671875 L 280.476562 68.632812 L 143.335938 28.027344 Z M 230.382812 239.566406 C 230.34375 239.566406 230.308594 239.5625 230.269531 239.550781 L 92.367188 198.722656 C 92.265625 198.691406 92.179688 198.621094 92.128906 198.527344 C 92.078125 198.433594 92.066406 198.324219 92.097656 198.222656 L 142.683594 27.417969 C 142.714844 27.316406 142.78125 27.230469 142.878906 27.179688 C 142.96875 27.128906 143.078125 27.117188 143.179688 27.148438 L 281.085938 67.980469 C 281.296875 68.042969 281.417969 68.261719 281.355469 68.476562 L 230.765625 239.28125 C 230.738281 239.382812 230.667969 239.46875 230.574219 239.519531 C 230.515625 239.550781 230.449219 239.566406 230.382812 239.566406 " fill-opacity="1" fill-rule="nonzero"/><path fill="#000000" d="M 226.011719 231.691406 L 109.265625 197.125 L 154.648438 43.890625 L 245.023438 70.644531 L 263.648438 104.617188 L 226.011719 231.691406 " fill-opacity="1" fill-rule="nonzero"/><path fill="#000000" d="M 263.648438 104.617188 L 237.277344 96.808594 L 245.023438 70.644531 Z M 263.648438 104.617188 " fill-opacity="1" fill-rule="nonzero"/><path fill="#ffffff" d="M 223.902344 227.839844 L 101.816406 191.691406 L 147.203125 38.453125 L 241.710938 66.4375 L 261.535156 100.765625 L 223.902344 227.839844 " fill-opacity="1" fill-rule="nonzero"/><path fill="#000000" d="M 102.3125 191.421875 L 223.632812 227.34375 L 261.105469 100.816406 L 241.441406 66.773438 L 147.46875 38.949219 Z M 223.902344 228.238281 C 223.863281 228.238281 223.824219 228.234375 223.785156 228.222656 L 101.703125 192.074219 C 101.492188 192.011719 101.371094 191.789062 101.4375 191.578125 L 146.820312 38.339844 C 146.847656 38.242188 146.917969 38.15625 147.011719 38.105469 C 147.105469 38.054688 147.214844 38.042969 147.316406 38.070312 L 241.824219 66.054688 C 241.917969 66.082031 242.003906 66.148438 242.054688 66.238281 L 261.882812 100.5625 C 261.9375 100.660156 261.949219 100.773438 261.917969 100.878906 L 224.285156 227.953125 C 224.253906 228.054688 224.183594 228.136719 224.09375 228.191406 C 224.03125 228.222656 223.964844 228.238281 223.902344 228.238281 " fill-opacity="1" fill-rule="nonzero"/><path fill="#ffffff" d="M 261.535156 100.765625 L 233.960938 92.601562 L 241.710938 66.4375 Z M 261.535156 100.765625 " fill-opacity="1" fill-rule="nonzero"/><path fill="#000000" d="M 234.457031 92.332031 L 260.691406 100.097656 L 241.828125 67.4375 Z M 261.535156 101.164062 C 261.5 101.164062 261.460938 101.160156 261.421875 101.144531 L 233.847656 92.980469 C 233.746094 92.953125 233.660156 92.882812 233.609375 92.789062 C 233.558594 92.699219 233.546875 92.585938 233.578125 92.484375 L 241.328125 66.324219 C 241.371094 66.171875 241.503906 66.058594 241.660156 66.042969 C 241.816406 66.023438 241.972656 66.097656 242.054688 66.238281 L 261.882812 100.5625 C 261.964844 100.707031 261.949219 100.882812 261.847656 101.011719 C 261.773438 101.109375 261.65625 101.164062 261.535156 101.164062 " fill-opacity="1" fill-rule="nonzero"/><path fill="#ffffff" d="M 182.355469 68.269531 L 224.996094 80.894531 L 225.816406 52.542969 C 225.988281 45.882812 232.457031 41.210938 238.871094 43.109375 L 196.230469 30.484375 C 189.8125 28.585938 183.347656 33.257812 183.175781 39.917969 L 182.355469 68.269531 " fill-opacity="1" fill-rule="nonzero"/><path fill="#000000" d="M 182.765625 67.972656 L 224.613281 80.367188 L 225.417969 52.535156 C 225.503906 49.246094 227.082031 46.25 229.746094 44.3125 C 231.28125 43.195312 233.042969 42.527344 234.863281 42.339844 L 196.117188 30.867188 C 193.167969 29.992188 190.054688 30.527344 187.574219 32.328125 C 185.113281 34.121094 183.652344 36.890625 183.574219 39.929688 Z M 225 81.292969 C 224.960938 81.292969 224.921875 81.289062 224.886719 81.277344 L 182.242188 68.652344 C 182.070312 68.601562 181.953125 68.4375 181.957031 68.257812 L 182.777344 39.910156 C 182.863281 36.621094 184.441406 33.621094 187.105469 31.683594 C 189.789062 29.738281 193.152344 29.160156 196.34375 30.101562 L 238.984375 42.726562 C 239.195312 42.792969 239.3125 43.011719 239.253906 43.222656 C 239.191406 43.433594 238.96875 43.554688 238.757812 43.492188 C 235.808594 42.621094 232.695312 43.152344 230.214844 44.957031 C 227.75 46.746094 226.292969 49.515625 226.214844 52.554688 L 225.398438 80.90625 C 225.394531 81.03125 225.332031 81.144531 225.234375 81.21875 C 225.164062 81.269531 225.082031 81.292969 225 81.292969 " fill-opacity="1" fill-rule="nonzero"/><path fill="#fda4ff" d="M 223.679688 163.140625 C 226.679688 168.03125 225.148438 174.425781 220.261719 177.425781 C 215.371094 180.425781 208.972656 178.894531 205.972656 174.007812 C 202.972656 169.117188 204.503906 162.722656 209.390625 159.722656 C 214.28125 156.722656 220.679688 158.253906 223.679688 163.140625 " fill-opacity="1" fill-rule="nonzero"/><path fill="#fda4ff" d="M 214.804688 155.082031 C 212.398438 155.082031 209.960938 155.726562 207.765625 157.070312 C 201.421875 160.964844 199.429688 169.292969 203.324219 175.632812 C 205.210938 178.703125 208.179688 180.859375 211.683594 181.699219 C 215.191406 182.535156 218.8125 181.960938 221.886719 180.074219 C 224.960938 178.1875 227.113281 175.222656 227.953125 171.714844 C 228.792969 168.207031 228.214844 164.585938 226.328125 161.515625 C 223.785156 157.367188 219.34375 155.082031 214.804688 155.082031 Z M 214.851562 182.871094 C 213.738281 182.871094 212.613281 182.738281 211.5 182.472656 C 207.785156 181.582031 204.640625 179.304688 202.644531 176.050781 C 198.519531 169.332031 200.632812 160.515625 207.347656 156.390625 C 214.066406 152.269531 222.886719 154.378906 227.007812 161.097656 C 229.003906 164.351562 229.617188 168.1875 228.726562 171.902344 C 227.839844 175.613281 225.558594 178.757812 222.304688 180.753906 C 220.023438 182.152344 217.460938 182.871094 214.851562 182.871094 " fill-opacity="1" fill-rule="nonzero"/><path fill="#000000" d="M 207.550781 174.53125 C 206.941406 174.53125 206.320312 174.738281 205.734375 175.144531 C 203.703125 176.5625 201.527344 180.691406 201.523438 184.570312 C 201.523438 185.015625 201.554688 185.492188 201.628906 185.996094 C 202.738281 185.816406 203.855469 185.417969 204.945312 184.808594 C 207.789062 183.222656 210.09375 180.378906 210.429688 178.046875 C 210.605469 176.808594 210.042969 175.59375 208.996094 174.949219 C 208.542969 174.671875 208.050781 174.53125 207.550781 174.53125 Z M 208.40625 192.996094 C 206.890625 192.996094 205.488281 192.613281 204.335938 191.808594 C 202.59375 190.59375 201.460938 188.914062 200.984375 186.878906 C 199.535156 186.996094 198.105469 186.765625 196.777344 186.1875 C 192.269531 184.230469 191.019531 178.839844 193.503906 172.117188 C 193.578125 171.910156 193.808594 171.804688 194.015625 171.882812 C 194.222656 171.960938 194.328125 172.1875 194.25 172.394531 C 191.925781 178.679688 193.015625 183.683594 197.09375 185.457031 C 198.273438 185.96875 199.542969 186.179688 200.835938 186.089844 C 200.765625 185.601562 200.726562 185.09375 200.726562 184.570312 C 200.730469 180.304688 203.089844 176.019531 205.277344 174.492188 C 206.597656 173.570312 208.140625 173.488281 209.414062 174.269531 C 210.734375 175.082031 211.4375 176.609375 211.21875 178.15625 C 210.851562 180.714844 208.378906 183.804688 205.335938 185.503906 C 204.167969 186.15625 202.972656 186.582031 201.785156 186.78125 C 202.15625 188.296875 203.007812 189.910156 204.789062 191.15625 C 208.101562 193.46875 214.023438 191.738281 217.988281 187.292969 C 218.132812 187.128906 218.382812 187.113281 218.550781 187.261719 C 218.714844 187.40625 218.730469 187.660156 218.582031 187.824219 C 215.628906 191.136719 211.746094 192.996094 208.40625 192.996094 " fill-opacity="1" fill-rule="nonzero"/><path fill="#000000" d="M 149.957031 95.75 L 236.746094 121.449219 L 238.921875 114.101562 L 152.128906 88.40625 Z M 237.015625 122.34375 C 236.976562 122.34375 236.9375 122.335938 236.902344 122.328125 L 149.347656 96.402344 C 149.246094 96.371094 149.160156 96.304688 149.109375 96.210938 C 149.058594 96.117188 149.046875 96.007812 149.078125 95.90625 L 151.480469 87.796875 C 151.542969 87.585938 151.761719 87.464844 151.972656 87.527344 L 239.53125 113.449219 C 239.742188 113.515625 239.859375 113.734375 239.800781 113.945312 L 237.398438 122.054688 C 237.367188 122.15625 237.296875 122.242188 237.207031 122.292969 C 237.148438 122.328125 237.082031 122.34375 237.015625 122.34375 " fill-opacity="1" fill-rule="nonzero"/><path fill="#000000" d="M 144.828125 113.0625 L 231.617188 138.757812 L 233.792969 131.410156 L 147.003906 105.714844 Z M 231.886719 139.652344 C 231.851562 139.652344 231.8125 139.648438 231.773438 139.636719 L 144.21875 113.714844 C 144.007812 113.648438 143.886719 113.425781 143.953125 113.21875 L 146.351562 105.105469 C 146.382812 105.003906 146.453125 104.917969 146.546875 104.867188 C 146.636719 104.816406 146.746094 104.808594 146.847656 104.839844 L 234.40625 130.761719 C 234.613281 130.824219 234.734375 131.046875 234.671875 131.253906 L 232.269531 139.367188 C 232.238281 139.46875 232.171875 139.554688 232.078125 139.601562 C 232.019531 139.636719 231.953125 139.652344 231.886719 139.652344 " fill-opacity="1" fill-rule="nonzero"/><path fill="#000000" d="M 139.664062 130.503906 L 185.84375 144.175781 L 188.019531 136.828125 L 141.839844 123.15625 Z M 186.113281 145.070312 C 186.078125 145.070312 186.039062 145.0625 186 145.054688 L 139.054688 131.15625 C 138.953125 131.125 138.867188 131.054688 138.816406 130.960938 C 138.765625 130.867188 138.753906 130.757812 138.785156 130.65625 L 141.1875 122.546875 C 141.25 122.335938 141.472656 122.21875 141.683594 122.277344 L 188.628906 136.179688 C 188.839844 136.242188 188.960938 136.464844 188.898438 136.671875 L 186.496094 144.785156 C 186.464844 144.886719 186.398438 144.972656 186.304688 145.023438 C 186.246094 145.054688 186.179688 145.070312 186.113281 145.070312 " fill-opacity="1" fill-rule="nonzero"/><path fill="#000000" d="M 134.535156 147.8125 L 180.71875 161.488281 L 182.894531 154.140625 L 136.710938 140.464844 Z M 180.988281 162.378906 C 180.949219 162.378906 180.910156 162.375 180.875 162.363281 L 133.929688 148.460938 C 133.714844 148.402344 133.597656 148.179688 133.660156 147.96875 L 136.0625 139.855469 C 136.089844 139.757812 136.160156 139.671875 136.253906 139.621094 C 136.34375 139.570312 136.453125 139.558594 136.554688 139.589844 L 183.503906 153.488281 C 183.714844 153.550781 183.835938 153.773438 183.773438 153.984375 L 181.371094 162.09375 C 181.339844 162.195312 181.273438 162.28125 181.179688 162.332031 C 181.121094 162.363281 181.054688 162.378906 180.988281 162.378906 " fill-opacity="1" fill-rule="nonzero"/><path fill="#000000" d="M 129.410156 165.121094 L 175.59375 178.796875 L 177.765625 171.449219 L 131.585938 157.777344 Z M 175.863281 179.691406 C 175.824219 179.691406 175.785156 179.683594 175.746094 179.671875 L 128.800781 165.773438 C 128.589844 165.710938 128.46875 165.488281 128.53125 165.277344 L 130.933594 157.167969 C 130.964844 157.066406 131.03125 156.980469 131.125 156.929688 C 131.21875 156.878906 131.328125 156.871094 131.429688 156.898438 L 178.375 170.796875 C 178.585938 170.863281 178.707031 171.082031 178.644531 171.292969 L 176.242188 179.402344 C 176.214844 179.503906 176.144531 179.589844 176.050781 179.640625 C 175.992188 179.671875 175.925781 179.691406 175.863281 179.691406 " fill-opacity="1" fill-rule="nonzero"/><path fill="#fda4ff" d="M 196.421875 160.644531 L 228.230469 183.921875 L 232.9375 177.496094 L 201.125 154.21875 Z M 228.320312 184.878906 C 228.234375 184.878906 228.152344 184.851562 228.082031 184.804688 L 195.628906 161.050781 C 195.542969 160.992188 195.484375 160.894531 195.46875 160.789062 C 195.453125 160.6875 195.480469 160.582031 195.542969 160.496094 L 200.71875 153.425781 C 200.847656 153.246094 201.097656 153.207031 201.277344 153.339844 L 233.730469 177.085938 C 233.910156 177.21875 233.945312 177.46875 233.816406 177.644531 L 228.640625 184.714844 C 228.578125 184.800781 228.484375 184.859375 228.378906 184.875 C 228.359375 184.878906 228.339844 184.878906 228.320312 184.878906 " fill-opacity="1" fill-rule="nonzero"/><g clip-path="url(#4b169f82cb)"><path fill="#fed101" d="M 318.976562 249.453125 L 318.285156 254.371094 L 318.039062 256.132812 L 317.574219 259.445312 L 317.550781 259.605469 L 317.242188 261.789062 L 303.707031 358.128906 L 261.164062 358.128906 L 262.578125 345.003906 L 262.578125 345 L 264.984375 322.726562 L 264.984375 322.722656 L 266.203125 311.457031 L 269.378906 282.054688 L 269.378906 282.050781 L 269.707031 279.015625 L 270.292969 273.574219 L 270.292969 273.566406 L 271.214844 265.070312 L 271.542969 262.046875 L 272.179688 256.132812 L 272.316406 254.851562 L 272.605469 252.214844 L 273.164062 247.003906 L 273.589844 243.082031 L 279.144531 243.863281 L 282.257812 244.296875 L 284.808594 244.652344 L 284.8125 244.652344 L 318.976562 249.453125 " fill-opacity="1" fill-rule="nonzero"/></g><g clip-path="url(#82f9f4c97b)"><path fill="#fed101" d="M 283.179688 259.339844 L 289.953125 262.144531 L 289.582031 262.917969 L 289.578125 262.925781 L 287.402344 267.4375 L 287.398438 267.449219 L 287.398438 267.453125 L 285.175781 272.058594 L 276.320312 290.449219 L 272.667969 298.027344 L 266.203125 311.457031 L 257.996094 328.492188 L 257.992188 328.496094 L 253.570312 337.679688 L 262.578125 345 L 262.578125 345.003906 L 275.992188 355.90625 L 278.726562 358.128906 L 209.769531 358.128906 C 209.605469 357.867188 209.441406 357.605469 209.289062 357.34375 C 209.179688 357.167969 209.078125 356.992188 208.976562 356.816406 C 208.792969 356.496094 208.613281 356.167969 208.441406 355.84375 C 208.335938 355.644531 208.230469 355.441406 208.132812 355.242188 C 208.113281 355.207031 208.09375 355.167969 208.070312 355.132812 C 207.980469 354.957031 207.894531 354.78125 207.8125 354.601562 C 207.566406 354.089844 207.328125 353.574219 207.109375 353.046875 C 207.039062 352.875 206.96875 352.703125 206.898438 352.53125 C 206.527344 351.621094 206.199219 350.699219 205.914062 349.757812 C 205.867188 349.621094 205.824219 349.484375 205.78125 349.34375 C 205.6875 349.027344 205.601562 348.710938 205.515625 348.390625 C 205.445312 348.128906 205.378906 347.863281 205.316406 347.601562 C 205.25 347.332031 205.191406 347.070312 205.136719 346.796875 C 204.960938 346.003906 204.820312 345.195312 204.699219 344.382812 C 204.664062 344.121094 204.628906 343.851562 204.601562 343.59375 C 204.515625 342.890625 204.453125 342.191406 204.414062 341.488281 C 204.394531 341.152344 204.378906 340.816406 204.371094 340.488281 C 204.359375 340.152344 204.355469 339.816406 204.355469 339.480469 C 204.355469 338.847656 204.371094 338.214844 204.402344 337.578125 C 204.453125 336.691406 204.539062 335.804688 204.65625 334.917969 C 204.679688 334.757812 204.699219 334.601562 204.722656 334.449219 C 204.738281 334.332031 204.753906 334.214844 204.777344 334.097656 C 204.804688 333.910156 204.835938 333.722656 204.871094 333.539062 C 204.949219 333.0625 205.046875 332.59375 205.144531 332.121094 C 205.203125 331.882812 205.25 331.644531 205.3125 331.410156 C 205.367188 331.179688 205.421875 330.945312 205.484375 330.710938 C 205.546875 330.472656 205.613281 330.238281 205.675781 330.003906 C 205.761719 329.695312 205.855469 329.382812 205.957031 329.074219 C 206.0625 328.730469 206.179688 328.394531 206.292969 328.054688 C 206.386719 327.773438 206.492188 327.496094 206.597656 327.21875 C 206.683594 326.988281 206.773438 326.757812 206.871094 326.527344 C 206.964844 326.296875 207.054688 326.070312 207.15625 325.84375 C 207.253906 325.613281 207.355469 325.386719 207.457031 325.160156 C 207.554688 324.929688 207.660156 324.703125 207.769531 324.476562 L 215.824219 307.667969 L 240.507812 256.132812 L 241.542969 253.972656 L 243.242188 250.433594 L 243.242188 250.429688 L 246.285156 244.078125 L 261.648438 250.433594 L 268.730469 253.363281 L 272.316406 254.851562 L 275.421875 256.132812 L 283.179688 259.339844 " fill-opacity="1" fill-rule="nonzero"/></g><path fill="#000000" d="M 277.769531 357.75 C 277.679688 357.75 277.589844 357.722656 277.515625 357.660156 L 253.316406 337.992188 C 253.175781 337.875 253.132812 337.675781 253.210938 337.507812 L 272.308594 297.855469 C 272.40625 297.65625 272.644531 297.574219 272.84375 297.671875 C 273.042969 297.765625 273.125 298.003906 273.03125 298.203125 L 254.066406 337.570312 L 278.019531 357.042969 C 278.1875 357.179688 278.214844 357.429688 278.078125 357.601562 C 277.996094 357.699219 277.882812 357.75 277.769531 357.75 " fill-opacity="1" fill-rule="nonzero"/><g clip-path="url(#3104802acd)"><path fill="#000000" d="M 209.769531 358.527344 C 209.640625 358.527344 209.511719 358.460938 209.433594 358.34375 C 202.894531 348.035156 202.136719 335.3125 207.410156 324.304688 L 245.921875 243.90625 C 246.019531 243.710938 246.257812 243.625 246.457031 243.722656 C 246.652344 243.816406 246.738281 244.054688 246.640625 244.253906 L 208.128906 324.648438 C 202.976562 335.40625 203.714844 347.84375 210.109375 357.914062 C 210.226562 358.101562 210.171875 358.347656 209.984375 358.464844 C 209.917969 358.507812 209.84375 358.527344 209.769531 358.527344 " fill-opacity="1" fill-rule="nonzero"/></g><path fill="#955b50" d="M 139.945312 275.300781 L 151.222656 294.1875 L 182.160156 275.738281 L 173.992188 254.996094 L 139.945312 275.300781 " fill-opacity="1" fill-rule="nonzero"/><path fill="#000000" d="M 140.492188 275.4375 L 151.359375 293.640625 L 181.664062 275.570312 L 173.792969 255.578125 Z M 151.222656 294.589844 C 151.085938 294.589844 150.953125 294.519531 150.878906 294.394531 L 139.601562 275.503906 C 139.546875 275.414062 139.53125 275.304688 139.558594 275.203125 C 139.585938 275.101562 139.648438 275.011719 139.742188 274.957031 L 173.785156 254.652344 C 173.886719 254.59375 174.007812 254.582031 174.121094 254.621094 C 174.230469 254.65625 174.320312 254.742188 174.359375 254.851562 L 182.53125 275.59375 C 182.605469 275.773438 182.53125 275.980469 182.367188 276.082031 L 151.425781 294.53125 C 151.363281 294.570312 151.292969 294.589844 151.222656 294.589844 " fill-opacity="1" fill-rule="nonzero"/><path fill="#fda4ff" d="M 106.640625 260.925781 L 99.8125 278.242188 L 128.492188 289.527344 L 135.320312 272.207031 L 106.640625 260.925781 " fill-opacity="1" fill-rule="nonzero"/><path fill="#fda4ff" d="M 153.246094 285.867188 L 154.390625 288.804688 C 154.96875 290.289062 154.417969 291.976562 153.078125 292.839844 L 150.050781 294.785156 L 147.390625 287.621094 L 117.570312 275.878906 L 120.027344 269.644531 L 148.085938 280.691406 C 150.453125 281.621094 152.320312 283.5 153.246094 285.867188 " fill-opacity="1" fill-rule="nonzero"/><path fill="#fda4ff" d="M 153.859375 281.613281 L 154.507812 283.277344 C 155.085938 284.761719 154.539062 286.449219 153.195312 287.308594 L 150.167969 289.257812 L 147.507812 282.09375 L 119.46875 271.054688 L 121.179688 266.714844 L 125.9375 268.589844 C 127.90625 269.363281 132.167969 268.847656 136.609375 270.597656 L 146.925781 274.660156 C 150.105469 275.910156 152.617188 278.433594 153.859375 281.613281 " fill-opacity="1" fill-rule="nonzero"/><path fill="#000000" d="M 153.078125 293.238281 C 152.949219 293.238281 152.820312 293.171875 152.742188 293.054688 C 152.625 292.867188 152.679688 292.621094 152.863281 292.503906 C 154.039062 291.746094 154.527344 290.253906 154.019531 288.949219 L 152.871094 286.011719 C 151.992188 283.753906 150.195312 281.949219 147.941406 281.0625 L 142.449219 278.898438 C 142.246094 278.820312 142.144531 278.589844 142.226562 278.382812 C 142.304688 278.179688 142.535156 278.078125 142.742188 278.160156 L 148.230469 280.320312 C 150.691406 281.289062 152.65625 283.257812 153.617188 285.722656 L 154.761719 288.660156 C 155.40625 290.316406 154.789062 292.214844 153.296875 293.171875 C 153.226562 293.21875 153.152344 293.238281 153.078125 293.238281 " fill-opacity="1" fill-rule="nonzero"/><path fill="#fda4ff" d="M 152.289062 290.332031 L 153.664062 293.859375 C 154.242188 295.34375 153.695312 297.03125 152.355469 297.894531 L 149.324219 299.839844 L 146.664062 292.675781 L 128.1875 285.402344 L 130.644531 279.160156 L 147.941406 285.972656 C 149.933594 286.757812 151.511719 288.339844 152.289062 290.332031 " fill-opacity="1" fill-rule="nonzero"/><path fill="#000000" d="M 151.171875 299.046875 C 151.042969 299.046875 150.914062 298.984375 150.835938 298.863281 C 150.71875 298.679688 150.773438 298.433594 150.957031 298.3125 L 152.136719 297.554688 C 153.3125 296.800781 153.796875 295.304688 153.292969 294.003906 L 151.917969 290.480469 C 151.179688 288.59375 149.679688 287.085938 147.796875 286.34375 L 140.578125 283.5 C 140.371094 283.421875 140.269531 283.191406 140.351562 282.984375 C 140.433594 282.78125 140.664062 282.679688 140.867188 282.761719 L 148.089844 285.601562 C 150.179688 286.425781 151.84375 288.097656 152.660156 290.1875 L 154.035156 293.714844 C 154.679688 295.371094 154.0625 297.265625 152.570312 298.226562 L 151.386719 298.984375 C 151.320312 299.027344 151.246094 299.046875 151.171875 299.046875 " fill-opacity="1" fill-rule="nonzero"/><path fill="#fda4ff" d="M 149.625 294.53125 L 151.058594 298.210938 C 151.589844 299.574219 151.085938 301.121094 149.855469 301.914062 C 148.199219 302.972656 145.988281 302.238281 145.304688 300.394531 L 144.546875 298.351562 C 144.183594 297.375 143.421875 296.601562 142.453125 296.21875 L 126.9375 290.109375 C 122.882812 288.511719 120.117188 287.15625 118.578125 279.605469 L 145.199219 290.09375 C 147.226562 290.890625 148.832031 292.5 149.625 294.53125 " fill-opacity="1" fill-rule="nonzero"/><path fill="#000000" d="M 148.191406 302.800781 C 147.824219 302.800781 147.449219 302.742188 147.089844 302.621094 C 146.085938 302.285156 145.296875 301.523438 144.929688 300.535156 L 144.171875 298.488281 C 143.847656 297.621094 143.167969 296.925781 142.304688 296.589844 L 125.144531 289.832031 C 122.039062 288.609375 119.742188 285.929688 119.011719 282.667969 C 118.964844 282.449219 119.097656 282.238281 119.3125 282.191406 C 119.527344 282.140625 119.742188 282.273438 119.789062 282.492188 C 120.464844 285.496094 122.578125 287.964844 125.4375 289.089844 L 142.597656 295.847656 C 143.671875 296.269531 144.519531 297.132812 144.917969 298.214844 L 145.679688 300.257812 C 145.960938 301.023438 146.570312 301.605469 147.339844 301.867188 C 148.113281 302.121094 148.953125 302.015625 149.636719 301.578125 C 150.707031 300.890625 151.144531 299.535156 150.683594 298.355469 L 149.25 294.675781 C 148.503906 292.753906 146.972656 291.21875 145.054688 290.464844 L 139.046875 288.097656 C 138.839844 288.019531 138.738281 287.785156 138.820312 287.582031 C 138.902344 287.375 139.132812 287.273438 139.339844 287.355469 L 145.347656 289.722656 C 147.46875 290.558594 149.164062 292.257812 149.996094 294.386719 L 151.425781 298.066406 C 152.023438 299.597656 151.453125 301.359375 150.070312 302.246094 C 149.5 302.613281 148.851562 302.800781 148.191406 302.800781 " fill-opacity="1" fill-rule="nonzero"/><path fill="#000000" d="M 153.6875 287.324219 C 153.578125 287.324219 153.472656 287.285156 153.394531 287.199219 C 153.246094 287.042969 153.25 286.789062 153.414062 286.636719 C 154.289062 285.808594 154.574219 284.546875 154.136719 283.421875 L 153.488281 281.757812 C 152.292969 278.691406 149.847656 276.238281 146.78125 275.03125 L 137.152344 271.238281 C 134.1875 270.074219 132.085938 269.847656 130.054688 269.632812 C 128.363281 269.453125 126.769531 269.28125 124.921875 268.554688 L 106.492188 261.300781 C 106.289062 261.21875 106.1875 260.988281 106.269531 260.78125 C 106.347656 260.578125 106.578125 260.476562 106.785156 260.558594 L 125.214844 267.8125 C 126.960938 268.5 128.503906 268.667969 130.136719 268.839844 C 132.125 269.050781 134.378906 269.292969 137.445312 270.496094 L 147.070312 274.289062 C 150.34375 275.578125 152.953125 278.195312 154.230469 281.46875 L 154.878906 283.132812 C 155.4375 284.5625 155.074219 286.164062 153.960938 287.21875 C 153.882812 287.289062 153.785156 287.324219 153.6875 287.324219 " fill-opacity="1" fill-rule="nonzero"/><path fill="#000000" d="M 120.769531 286.597656 C 120.722656 286.597656 120.671875 286.585938 120.625 286.566406 L 99.019531 278.140625 C 98.8125 278.058594 98.710938 277.828125 98.792969 277.621094 C 98.871094 277.417969 99.101562 277.316406 99.308594 277.394531 L 120.914062 285.824219 C 121.121094 285.90625 121.222656 286.136719 121.140625 286.339844 C 121.082031 286.5 120.929688 286.597656 120.769531 286.597656 " fill-opacity="1" fill-rule="nonzero"/><path fill="#955b50" d="M 131.511719 296.460938 C 130.253906 296.441406 129.25 295.410156 129.269531 294.15625 L 129.386719 285.675781 C 129.402344 284.417969 130.4375 283.417969 131.691406 283.433594 C 132.945312 283.453125 133.953125 284.484375 133.933594 285.738281 L 133.816406 294.21875 C 133.796875 295.476562 132.765625 296.476562 131.511719 296.460938 " fill-opacity="1" fill-rule="nonzero"/><path fill="#000000" d="M 131.660156 283.832031 C 130.636719 283.832031 129.800781 284.65625 129.785156 285.679688 L 129.667969 294.160156 C 129.652344 295.195312 130.480469 296.046875 131.515625 296.0625 L 131.511719 296.460938 L 131.515625 296.0625 C 132.554688 296.09375 133.402344 295.246094 133.417969 294.214844 L 133.535156 285.734375 C 133.550781 284.699219 132.722656 283.847656 131.6875 283.832031 C 131.679688 283.832031 131.667969 283.832031 131.660156 283.832031 Z M 131.542969 296.859375 C 131.53125 296.859375 131.515625 296.859375 131.503906 296.859375 C 130.027344 296.835938 128.847656 295.621094 128.871094 294.148438 L 128.988281 285.667969 C 129.007812 284.210938 130.203125 283.035156 131.660156 283.035156 C 131.671875 283.035156 131.683594 283.035156 131.699219 283.035156 C 133.171875 283.054688 134.355469 284.269531 134.332031 285.746094 L 134.214844 294.226562 C 134.195312 295.683594 133 296.859375 131.542969 296.859375 " fill-opacity="1" fill-rule="nonzero"/><path fill="#955b50" d="M 126.96875 291.328125 C 125.710938 291.3125 124.707031 290.277344 124.722656 289.023438 L 124.816406 282.558594 C 124.832031 281.300781 125.867188 280.300781 127.121094 280.316406 C 128.375 280.335938 129.378906 281.367188 129.363281 282.625 L 129.273438 289.089844 C 129.253906 290.34375 128.222656 291.347656 126.96875 291.328125 " fill-opacity="1" fill-rule="nonzero"/><path fill="#000000" d="M 127.089844 280.714844 C 126.597656 280.714844 126.132812 280.90625 125.78125 281.246094 C 125.421875 281.597656 125.222656 282.0625 125.214844 282.566406 L 125.125 289.03125 C 125.109375 290.0625 125.9375 290.917969 126.972656 290.929688 L 126.96875 291.328125 L 126.972656 290.929688 C 126.980469 290.929688 126.988281 290.929688 127 290.929688 C 128.019531 290.929688 128.859375 290.105469 128.875 289.082031 L 128.964844 282.617188 C 128.972656 282.117188 128.78125 281.644531 128.433594 281.28125 C 128.085938 280.925781 127.617188 280.722656 127.117188 280.714844 C 127.105469 280.714844 127.097656 280.714844 127.089844 280.714844 Z M 127 291.726562 C 126.988281 291.726562 126.976562 291.726562 126.960938 291.726562 C 125.484375 291.703125 124.304688 290.492188 124.324219 289.019531 L 124.417969 282.550781 C 124.425781 281.839844 124.714844 281.171875 125.226562 280.675781 C 125.738281 280.175781 126.402344 279.910156 127.125 279.917969 C 127.839844 279.929688 128.507812 280.214844 129.003906 280.726562 C 129.503906 281.238281 129.769531 281.914062 129.761719 282.628906 L 129.671875 289.09375 C 129.648438 290.554688 128.457031 291.726562 127 291.726562 " fill-opacity="1" fill-rule="nonzero"/><path fill="#955b50" d="M 136.050781 298.988281 C 134.796875 298.96875 133.789062 297.9375 133.808594 296.679688 L 133.917969 288.765625 C 133.9375 287.511719 134.96875 286.503906 136.222656 286.523438 C 137.480469 286.542969 138.484375 287.574219 138.46875 288.828125 L 138.355469 296.742188 C 138.339844 298 137.304688 299.003906 136.050781 298.988281 " fill-opacity="1" fill-rule="nonzero"/><path fill="#000000" d="M 136.191406 286.921875 C 135.171875 286.921875 134.332031 287.746094 134.316406 288.769531 L 134.207031 296.6875 C 134.191406 297.71875 135.023438 298.574219 136.054688 298.589844 L 136.050781 298.988281 L 136.054688 298.589844 C 136.5625 298.605469 137.03125 298.40625 137.390625 298.058594 C 137.75 297.707031 137.949219 297.242188 137.957031 296.738281 L 138.070312 288.824219 C 138.082031 287.789062 137.253906 286.9375 136.21875 286.921875 C 136.210938 286.921875 136.199219 286.921875 136.191406 286.921875 Z M 136.082031 299.382812 C 136.070312 299.382812 136.058594 299.382812 136.046875 299.382812 C 134.566406 299.363281 133.390625 298.148438 133.410156 296.675781 L 133.519531 288.761719 C 133.53125 288.046875 133.816406 287.378906 134.328125 286.882812 C 134.839844 286.382812 135.5 286.105469 136.230469 286.125 C 136.234375 286.125 136.238281 286.125 136.242188 286.125 C 136.953125 286.136719 137.613281 286.425781 138.109375 286.933594 C 138.605469 287.445312 138.875 288.121094 138.867188 288.835938 L 138.753906 296.75 C 138.746094 297.464844 138.457031 298.132812 137.945312 298.628906 C 137.441406 299.117188 136.785156 299.382812 136.082031 299.382812 " fill-opacity="1" fill-rule="nonzero"/><path fill="#955b50" d="M 140.511719 300.773438 C 139.257812 300.757812 138.253906 299.726562 138.269531 298.46875 L 138.339844 293.625 C 138.355469 292.371094 139.386719 291.367188 140.644531 291.382812 C 141.898438 291.402344 142.90625 292.433594 142.886719 293.6875 L 142.816406 298.535156 C 142.800781 299.789062 141.769531 300.792969 140.511719 300.773438 " fill-opacity="1" fill-rule="nonzero"/><path fill="#000000" d="M 140.527344 300.378906 C 141.554688 300.371094 142.402344 299.558594 142.417969 298.527344 L 142.488281 293.683594 C 142.496094 293.179688 142.304688 292.707031 141.957031 292.347656 C 141.609375 291.988281 141.140625 291.789062 140.640625 291.78125 C 139.597656 291.757812 138.75 292.597656 138.738281 293.628906 L 138.667969 298.476562 C 138.660156 298.976562 138.851562 299.449219 139.199219 299.808594 C 139.546875 300.167969 140.015625 300.371094 140.515625 300.378906 C 140.519531 300.378906 140.523438 300.378906 140.527344 300.378906 Z M 140.546875 301.171875 C 140.527344 301.171875 140.511719 301.175781 140.492188 301.171875 C 139.785156 301.160156 139.121094 300.871094 138.628906 300.363281 C 138.128906 299.855469 137.863281 299.179688 137.871094 298.464844 L 137.9375 293.617188 C 137.960938 292.144531 139.183594 290.960938 140.648438 290.984375 C 141.363281 290.996094 142.03125 291.28125 142.53125 291.792969 C 143.027344 292.304688 143.296875 292.980469 143.285156 293.691406 L 143.21875 298.539062 C 143.195312 300 142 301.171875 140.546875 301.171875 " fill-opacity="1" fill-rule="nonzero"/><path fill="#955b50" d="M 139.492188 273.589844 L 139.492188 273.585938 C 139.511719 272.097656 140.738281 270.910156 142.226562 270.929688 L 147.855469 271.007812 C 149.34375 271.027344 150.53125 272.25 150.511719 273.738281 L 150.511719 273.746094 C 150.488281 275.234375 149.265625 276.421875 147.777344 276.402344 L 142.148438 276.320312 C 140.660156 276.300781 139.472656 275.078125 139.492188 273.589844 " fill-opacity="1" fill-rule="nonzero"/><path fill="#000000" d="M 139.492188 273.589844 L 139.496094 273.589844 Z M 142.1875 271.328125 C 141.585938 271.328125 141.019531 271.554688 140.585938 271.976562 C 140.148438 272.40625 139.898438 272.976562 139.890625 273.589844 L 139.890625 273.59375 C 139.882812 274.207031 140.113281 274.785156 140.539062 275.226562 C 140.96875 275.667969 141.539062 275.914062 142.15625 275.921875 L 147.785156 276.003906 C 149.050781 276.019531 150.09375 275.003906 150.113281 273.738281 C 150.121094 273.121094 149.890625 272.542969 149.460938 272.101562 C 149.035156 271.660156 148.464844 271.414062 147.847656 271.40625 L 142.21875 271.328125 C 142.207031 271.328125 142.195312 271.328125 142.1875 271.328125 Z M 147.816406 276.800781 C 147.804688 276.800781 147.789062 276.800781 147.773438 276.800781 L 142.144531 276.71875 C 141.316406 276.707031 140.546875 276.375 139.96875 275.78125 C 139.394531 275.191406 139.082031 274.414062 139.09375 273.585938 C 139.105469 272.753906 139.4375 271.980469 140.03125 271.40625 C 140.621094 270.832031 141.410156 270.523438 142.230469 270.53125 L 147.859375 270.609375 C 149.566406 270.632812 150.933594 272.039062 150.910156 273.746094 C 150.886719 275.441406 149.503906 276.800781 147.816406 276.800781 " fill-opacity="1" fill-rule="nonzero"/><path fill="#8c7bff" d="M 350.0625 229.507812 L 329.449219 189.84375 C 324.707031 180.722656 315.75 174.539062 305.535156 173.335938 L 277.875 170.082031 L 261.511719 173.773438 C 248.96875 176.597656 237.679688 183.402344 229.324219 193.167969 L 193.347656 241.035156 L 214.054688 267.324219 L 237.519531 242.488281 L 236.527344 256.132812 L 328.128906 256.132812 L 327.914062 253.339844 C 332.449219 255.242188 337.761719 255.210938 342.484375 252.804688 C 351.015625 248.464844 354.410156 238.03125 350.0625 229.507812 " fill-opacity="1" fill-rule="nonzero"/><path fill="#000000" d="M 342.484375 253.203125 C 342.339844 253.203125 342.203125 253.125 342.128906 252.988281 C 342.03125 252.789062 342.109375 252.550781 342.304688 252.453125 C 346.335938 250.398438 349.328125 246.902344 350.726562 242.601562 C 352.121094 238.300781 351.761719 233.714844 349.707031 229.6875 L 329.09375 190.027344 C 324.40625 181.011719 315.585938 174.921875 305.488281 173.734375 L 277.828125 170.476562 C 277.609375 170.449219 277.453125 170.253906 277.476562 170.035156 C 277.503906 169.816406 277.699219 169.65625 277.921875 169.683594 L 305.582031 172.941406 C 315.9375 174.160156 324.992188 180.410156 329.800781 189.660156 L 350.417969 229.320312 C 352.570312 233.542969 352.945312 238.34375 351.484375 242.847656 C 350.019531 247.351562 346.886719 251.011719 342.667969 253.160156 C 342.609375 253.191406 342.546875 253.203125 342.484375 253.203125 " fill-opacity="1" fill-rule="nonzero"/><path fill="#000000" d="M 236.527344 256.53125 C 236.519531 256.53125 236.507812 256.53125 236.5 256.53125 C 236.277344 256.515625 236.113281 256.324219 236.128906 256.105469 L 240.367188 197.789062 C 240.382812 197.570312 240.574219 197.40625 240.792969 197.417969 C 241.011719 197.433594 241.179688 197.625 241.164062 197.84375 L 236.925781 256.164062 C 236.910156 256.371094 236.734375 256.53125 236.527344 256.53125 " fill-opacity="1" fill-rule="nonzero"/><path fill="#ffffff" d="M 275.015625 180.59375 L 282.957031 188.050781 L 291.691406 171.015625 L 281.3125 169.023438 L 275.015625 180.59375 " fill-opacity="1" fill-rule="nonzero"/><path fill="#ffffff" d="M 275.046875 180.585938 L 265.203125 187.605469 L 266.542969 172.636719 L 273.601562 169.421875 L 275.046875 180.585938 " fill-opacity="1" fill-rule="nonzero"/><path fill="#000000" d="M 311.042969 229.679688 C 310.898438 229.679688 310.757812 229.601562 310.6875 229.460938 L 299.488281 207.488281 C 299.386719 207.292969 299.464844 207.050781 299.660156 206.949219 C 299.859375 206.851562 300.097656 206.929688 300.195312 207.125 L 311.398438 229.097656 C 311.496094 229.296875 311.417969 229.535156 311.222656 229.632812 C 311.164062 229.664062 311.105469 229.679688 311.042969 229.679688 " fill-opacity="1" fill-rule="nonzero"/><path fill="#8c7bff" d="M 210.085938 225.917969 L 228.410156 260.109375 L 166.550781 288.820312 L 151.722656 261.160156 L 210.085938 225.917969 " fill-opacity="1" fill-rule="nonzero"/><path fill="#000000" d="M 166.550781 289.21875 C 166.40625 289.21875 166.269531 289.140625 166.199219 289.007812 L 151.371094 261.347656 C 151.269531 261.160156 151.335938 260.929688 151.515625 260.816406 L 200.515625 231.230469 C 200.703125 231.117188 200.949219 231.179688 201.0625 231.367188 C 201.175781 231.554688 201.113281 231.800781 200.925781 231.914062 L 152.253906 261.304688 L 166.898438 288.632812 C 167.003906 288.824219 166.929688 289.066406 166.738281 289.171875 C 166.679688 289.203125 166.613281 289.21875 166.550781 289.21875 " fill-opacity="1" fill-rule="nonzero"/><path fill="#ffffff" d="M 287.578125 304.066406 L 243.160156 340.742188 L 191.863281 278.6875 L 236.28125 242.007812 L 287.578125 304.066406 " fill-opacity="1" fill-rule="nonzero"/><path fill="#000000" d="M 192.425781 278.738281 L 243.214844 340.179688 L 287.015625 304.011719 L 236.226562 242.570312 Z M 243.160156 341.140625 C 243.046875 341.140625 242.933594 341.089844 242.855469 340.996094 L 191.554688 278.941406 C 191.488281 278.859375 191.457031 278.753906 191.46875 278.648438 C 191.476562 278.542969 191.527344 278.445312 191.609375 278.378906 L 236.027344 241.703125 C 236.199219 241.5625 236.449219 241.589844 236.589844 241.757812 L 287.886719 303.8125 C 287.953125 303.894531 287.984375 304 287.976562 304.105469 C 287.964844 304.210938 287.914062 304.304688 287.832031 304.375 L 243.414062 341.050781 C 243.339844 341.109375 243.25 341.140625 243.160156 341.140625 " fill-opacity="1" fill-rule="nonzero"/><path fill="#000000" d="M 223.964844 258.414062 L 210.304688 269.691406 L 203.796875 261.820312 L 217.457031 250.542969 L 223.964844 258.414062 " fill-opacity="1" fill-rule="nonzero"/><path fill="#000000" d="M 210.769531 253.355469 C 208.753906 253.355469 207.117188 254.996094 207.117188 257.007812 C 207.117188 259.019531 208.753906 260.660156 210.769531 260.660156 C 212.785156 260.660156 214.425781 259.019531 214.425781 257.007812 C 214.425781 254.996094 212.785156 253.355469 210.769531 253.355469 Z M 210.769531 261.457031 C 208.316406 261.457031 206.320312 259.460938 206.320312 257.007812 C 206.320312 254.554688 208.316406 252.558594 210.769531 252.558594 C 213.226562 252.558594 215.222656 254.554688 215.222656 257.007812 C 215.222656 259.460938 213.226562 261.457031 210.769531 261.457031 " fill-opacity="1" fill-rule="nonzero"/><path fill="#020202" d="M 340.027344 253.496094 L 332.117188 231.296875 L 302.746094 239.589844 L 284.8125 244.652344 L 284.808594 244.652344 L 279.726562 246.09375 L 278.503906 246.4375 L 279.476562 250.164062 L 272.605469 252.214844 L 268.730469 253.363281 L 259.433594 256.132812 L 256.554688 256.996094 L 256.546875 256.996094 L 255.480469 257.3125 C 255.367188 257.347656 255.246094 257.382812 255.128906 257.421875 C 254.34375 257.667969 253.589844 257.957031 252.84375 258.292969 L 252.835938 258.292969 C 252.089844 258.625 251.367188 259 250.667969 259.417969 C 248.214844 260.867188 246.070312 262.800781 244.359375 265.125 L 238.480469 273.109375 C 237.382812 274.597656 236.523438 276.25 235.933594 277.996094 L 233.300781 285.804688 L 232.578125 287.945312 C 232.085938 289.398438 232.867188 290.976562 234.320312 291.460938 L 234.792969 291.621094 C 235.277344 291.789062 235.777344 291.808594 236.25 291.707031 C 237.175781 291.511719 237.984375 290.839844 238.308594 289.878906 L 237.085938 293.496094 L 236.386719 295.578125 C 235.878906 297.082031 236.683594 298.703125 238.183594 299.210938 L 238.488281 299.308594 C 239.988281 299.816406 241.613281 299.007812 242.121094 297.511719 L 242.71875 295.738281 C 242.214844 297.238281 243.015625 298.859375 244.515625 299.363281 L 244.820312 299.46875 C 246.324219 299.972656 247.945312 299.167969 248.453125 297.671875 L 250.183594 292.535156 C 249.679688 294.03125 250.488281 295.652344 251.984375 296.160156 L 252.289062 296.265625 C 253.789062 296.765625 255.414062 295.964844 255.921875 294.464844 L 258.875 285.722656 C 259.433594 284.058594 260.71875 282.742188 262.375 282.144531 L 266.257812 280.746094 C 266.53125 280.652344 266.800781 280.542969 267.074219 280.433594 C 267.15625 280.390625 267.242188 280.351562 267.332031 280.3125 C 267.476562 280.253906 267.628906 280.183594 267.773438 280.113281 C 267.804688 280.101562 267.835938 280.085938 267.863281 280.070312 C 267.964844 280.019531 268.066406 279.964844 268.164062 279.914062 C 268.320312 279.835938 268.476562 279.757812 268.628906 279.671875 C 268.738281 279.609375 268.835938 279.550781 268.941406 279.492188 C 269.085938 279.40625 269.230469 279.3125 269.378906 279.226562 C 269.476562 279.164062 269.578125 279.09375 269.683594 279.03125 C 269.691406 279.023438 269.699219 279.019531 269.707031 279.015625 C 269.839844 278.929688 269.96875 278.839844 270.097656 278.742188 C 270.191406 278.679688 270.292969 278.609375 270.386719 278.535156 C 270.523438 278.433594 270.660156 278.328125 270.796875 278.222656 C 270.886719 278.152344 270.976562 278.082031 271.066406 278.007812 C 271.207031 277.894531 271.335938 277.777344 271.472656 277.65625 C 271.550781 277.585938 271.628906 277.515625 271.714844 277.441406 C 271.863281 277.304688 272.003906 277.167969 272.148438 277.027344 C 272.207031 276.964844 272.269531 276.910156 272.328125 276.851562 C 272.527344 276.644531 272.71875 276.433594 272.910156 276.21875 C 272.945312 276.183594 272.976562 276.144531 273.003906 276.105469 C 273.160156 275.929688 273.308594 275.75 273.453125 275.5625 C 273.515625 275.484375 273.574219 275.402344 273.636719 275.324219 C 273.75 275.171875 273.859375 275.027344 273.964844 274.878906 L 274.160156 274.589844 C 274.257812 274.453125 274.351562 274.308594 274.441406 274.160156 C 274.507812 274.054688 274.566406 273.957031 274.628906 273.851562 C 274.71875 273.707031 274.800781 273.558594 274.882812 273.414062 C 274.945312 273.308594 274.996094 273.199219 275.058594 273.09375 C 275.132812 272.945312 275.207031 272.792969 275.285156 272.644531 C 275.339844 272.53125 275.390625 272.425781 275.4375 272.3125 C 275.464844 272.257812 275.496094 272.207031 275.515625 272.152344 L 284.507812 269.472656 L 285.175781 272.058594 L 285.421875 273 L 317.242188 261.789062 L 338.898438 254.15625 L 338.914062 254.152344 L 338.917969 254.152344 L 338.933594 254.148438 L 338.941406 254.148438 L 338.953125 254.140625 L 340.109375 253.734375 L 340.027344 253.496094 " fill-opacity="1" fill-rule="nonzero"/><path fill="#955b50" d="M 241.664062 274.894531 L 236.382812 290.542969 C 235.878906 292.042969 236.683594 293.664062 238.183594 294.171875 L 238.488281 294.273438 C 239.988281 294.78125 241.613281 293.976562 242.117188 292.476562 L 247.398438 276.828125 C 247.988281 275.074219 248.851562 273.425781 249.945312 271.9375 L 260.078125 258.183594 L 254.34375 256.25 L 244.210938 270.007812 C 243.117188 271.492188 242.257812 273.144531 241.664062 274.894531 " fill-opacity="1" fill-rule="nonzero"/><path fill="#955b50" d="M 247.398438 276.828125 L 242.71875 290.699219 C 242.210938 292.199219 243.019531 293.824219 244.519531 294.328125 L 244.820312 294.429688 C 246.320312 294.9375 247.945312 294.132812 248.453125 292.632812 L 253.132812 278.757812 C 253.722656 277.007812 254.582031 275.359375 255.679688 273.871094 L 265.808594 260.113281 L 260.078125 258.183594 L 249.945312 271.9375 C 248.847656 273.425781 247.988281 275.074219 247.398438 276.828125 " fill-opacity="1" fill-rule="nonzero"/><path fill="#955b50" d="M 253.132812 278.757812 L 250.183594 287.496094 C 249.679688 288.992188 250.484375 290.617188 251.984375 291.121094 L 252.289062 291.226562 C 253.789062 291.730469 255.414062 290.925781 255.917969 289.425781 L 258.871094 280.679688 C 259.429688 279.019531 260.722656 277.703125 262.375 277.109375 L 266.257812 275.710938 C 270.882812 274.050781 274.496094 270.367188 276.066406 265.710938 L 276.714844 263.789062 L 265.808594 260.113281 L 255.679688 273.871094 C 254.582031 275.359375 253.722656 277.007812 253.132812 278.757812 " fill-opacity="1" fill-rule="nonzero"/><path fill="#955b50" d="M 255.480469 252.273438 C 251.019531 253.597656 247.117188 256.34375 244.359375 260.085938 L 238.476562 268.074219 C 237.382812 269.5625 236.523438 271.210938 235.929688 272.960938 L 232.574219 282.910156 C 232.085938 284.359375 232.867188 285.933594 234.320312 286.425781 L 234.789062 286.585938 C 236.242188 287.074219 237.820312 286.292969 238.308594 284.839844 L 241.664062 274.894531 C 242.257812 273.144531 243.117188 271.492188 244.210938 270.007812 L 253.910156 256.839844 L 275.5 267.109375 L 327.835938 251.527344 L 300.945312 238.734375 L 255.480469 252.273438 " fill-opacity="1" fill-rule="nonzero"/><path fill="#000000" d="M 239.40625 294.824219 C 239.054688 294.824219 238.703125 294.765625 238.363281 294.652344 L 238.058594 294.550781 C 237.230469 294.269531 236.5625 293.6875 236.175781 292.90625 C 235.789062 292.125 235.730469 291.242188 236.007812 290.417969 L 241.289062 274.765625 C 241.894531 272.972656 242.769531 271.292969 243.890625 269.769531 L 251.730469 259.125 C 251.859375 258.945312 252.109375 258.910156 252.289062 259.039062 C 252.464844 259.171875 252.503906 259.417969 252.375 259.597656 L 244.53125 270.242188 C 243.460938 271.699219 242.621094 273.304688 242.042969 275.019531 L 236.761719 290.671875 C 236.550781 291.296875 236.597656 291.964844 236.890625 292.554688 C 237.183594 293.144531 237.6875 293.585938 238.3125 293.792969 L 238.617188 293.894531 C 239.242188 294.109375 239.910156 294.0625 240.5 293.769531 C 241.089844 293.476562 241.53125 292.972656 241.742188 292.347656 L 247.023438 276.699219 C 247.625 274.90625 248.503906 273.226562 249.625 271.703125 L 257.246094 261.355469 C 257.378906 261.175781 257.625 261.136719 257.804688 261.269531 C 257.980469 261.398438 258.019531 261.648438 257.886719 261.828125 L 250.265625 272.171875 C 249.191406 273.632812 248.355469 275.238281 247.777344 276.953125 L 242.496094 292.605469 C 242.21875 293.429688 241.636719 294.097656 240.855469 294.484375 C 240.394531 294.710938 239.902344 294.824219 239.40625 294.824219 " fill-opacity="1" fill-rule="nonzero"/><path fill="#000000" d="M 245.734375 294.980469 C 245.390625 294.980469 245.039062 294.925781 244.695312 294.808594 L 244.390625 294.707031 C 242.683594 294.132812 241.765625 292.277344 242.339844 290.574219 L 247.023438 276.699219 C 247.625 274.90625 248.503906 273.226562 249.625 271.703125 L 257.246094 261.355469 C 257.378906 261.175781 257.625 261.136719 257.804688 261.269531 C 257.980469 261.398438 258.019531 261.648438 257.886719 261.828125 L 250.265625 272.171875 C 249.191406 273.632812 248.355469 275.238281 247.777344 276.953125 L 243.097656 290.828125 C 242.660156 292.117188 243.355469 293.515625 244.644531 293.949219 L 244.949219 294.054688 C 246.238281 294.488281 247.640625 293.792969 248.074219 292.503906 L 252.753906 278.632812 C 253.363281 276.839844 254.238281 275.15625 255.359375 273.636719 L 263.199219 262.988281 C 263.328125 262.8125 263.578125 262.773438 263.757812 262.902344 C 263.933594 263.035156 263.972656 263.285156 263.839844 263.460938 L 256 274.105469 C 254.925781 275.5625 254.089844 277.171875 253.511719 278.886719 L 248.832031 292.761719 C 248.371094 294.121094 247.097656 294.980469 245.734375 294.980469 " fill-opacity="1" fill-rule="nonzero"/><path fill="#000000" d="M 253.203125 291.773438 C 252.855469 291.773438 252.507812 291.71875 252.164062 291.601562 L 251.855469 291.5 C 251.03125 291.222656 250.363281 290.636719 249.976562 289.859375 C 249.589844 289.078125 249.53125 288.191406 249.808594 287.367188 L 252.753906 278.632812 C 253.359375 276.839844 254.238281 275.160156 255.359375 273.632812 L 263.199219 262.988281 C 263.328125 262.8125 263.578125 262.773438 263.757812 262.902344 C 263.933594 263.035156 263.972656 263.285156 263.839844 263.460938 L 256 274.105469 C 254.925781 275.5625 254.089844 277.171875 253.511719 278.886719 L 250.5625 287.621094 C 250.355469 288.246094 250.398438 288.914062 250.691406 289.503906 C 250.984375 290.09375 251.488281 290.535156 252.113281 290.746094 L 252.417969 290.847656 C 253.703125 291.28125 255.109375 290.585938 255.542969 289.300781 L 258.492188 280.554688 C 259.097656 278.765625 260.460938 277.375 262.242188 276.734375 L 266.125 275.339844 C 270.128906 273.894531 273.421875 270.839844 275.152344 266.953125 L 275.226562 266.785156 L 275.402344 266.734375 L 326.726562 251.441406 L 300.910156 239.160156 L 255.589844 252.65625 C 251.246094 253.949219 247.367188 256.671875 244.679688 260.324219 L 238.800781 268.308594 C 237.726562 269.765625 236.890625 271.375 236.308594 273.089844 L 232.953125 283.035156 C 232.75 283.636719 232.792969 284.28125 233.078125 284.851562 C 233.359375 285.421875 233.84375 285.84375 234.449219 286.046875 L 234.917969 286.207031 C 236.160156 286.625 237.511719 285.953125 237.929688 284.714844 L 241.289062 274.765625 C 241.890625 272.972656 242.769531 271.292969 243.890625 269.769531 L 250.164062 261.253906 C 250.292969 261.074219 250.542969 261.035156 250.722656 261.167969 C 250.898438 261.300781 250.933594 261.546875 250.804688 261.726562 L 244.53125 270.242188 C 243.457031 271.699219 242.621094 273.308594 242.042969 275.019531 L 238.6875 284.96875 C 238.125 286.628906 236.324219 287.519531 234.664062 286.960938 L 234.191406 286.804688 C 233.386719 286.53125 232.738281 285.964844 232.363281 285.207031 C 231.984375 284.445312 231.925781 283.585938 232.199219 282.78125 L 235.554688 272.832031 C 236.160156 271.039062 237.035156 269.359375 238.15625 267.835938 L 244.039062 259.851562 C 246.828125 256.0625 250.851562 253.234375 255.363281 251.890625 L 300.976562 238.308594 L 328.941406 251.613281 L 275.804688 267.449219 C 273.964844 271.453125 270.542969 274.59375 266.394531 276.085938 L 262.511719 277.484375 C 260.964844 278.039062 259.773438 279.253906 259.25 280.808594 L 256.296875 289.554688 C 255.835938 290.914062 254.566406 291.773438 253.203125 291.773438 " fill-opacity="1" fill-rule="nonzero"/><path fill="#000000" d="M 275.546875 267.445312 C 275.503906 267.445312 275.460938 267.4375 275.417969 267.421875 C 275.210938 267.351562 275.097656 267.125 275.167969 266.917969 L 277.109375 261.160156 C 277.179688 260.953125 277.40625 260.839844 277.617188 260.910156 C 277.824219 260.980469 277.9375 261.207031 277.863281 261.414062 L 275.925781 267.171875 C 275.867188 267.339844 275.710938 267.445312 275.546875 267.445312 " fill-opacity="1" fill-rule="nonzero"/><path fill="#8c7bff" d="M 340.109375 253.734375 L 285.425781 267.964844 L 278.503906 241.398438 L 330.914062 222.304688 L 340.109375 253.734375 " fill-opacity="1" fill-rule="nonzero"/><path fill="#000000" d="M 285.425781 268.363281 C 285.355469 268.363281 285.285156 268.34375 285.222656 268.308594 C 285.132812 268.253906 285.066406 268.167969 285.039062 268.0625 L 278.117188 241.5 C 278.066406 241.300781 278.175781 241.097656 278.367188 241.023438 L 331.949219 221.078125 C 332.15625 221.003906 332.386719 221.109375 332.460938 221.316406 C 332.539062 221.523438 332.4375 221.75 332.230469 221.828125 L 278.980469 241.644531 L 285.710938 267.476562 L 342.089844 252.539062 C 342.304688 252.484375 342.519531 252.609375 342.578125 252.820312 C 342.632812 253.035156 342.507812 253.253906 342.292969 253.308594 L 285.527344 268.351562 C 285.492188 268.359375 285.460938 268.363281 285.425781 268.363281 " fill-opacity="1" fill-rule="nonzero"/><path fill="#955b50" d="M 284.582031 170.90625 L 275.003906 180.621094 L 271.023438 161.140625 L 282.125 158.875 L 284.582031 170.90625 " fill-opacity="1" fill-rule="nonzero"/><path fill="#000000" d="M 282.953125 162.933594 L 282.125 158.875 L 271.023438 161.140625 L 272.851562 170.097656 C 273.859375 170.09375 275.835938 169.941406 277.898438 168.761719 C 281.128906 166.914062 282.667969 163.78125 282.953125 162.933594 " fill-opacity="1" fill-rule="nonzero"/><path fill="#000000" d="M 282.945312 155.660156 L 273.957031 155.292969 L 265.691406 159.054688 L 262.832031 147.050781 L 279.894531 141.121094 L 282.945312 155.660156 " fill-opacity="1" fill-rule="nonzero"/><path fill="#955b50" d="M 282.894531 155.425781 C 283.96875 160.679688 280.980469 165.726562 276.222656 166.695312 C 271.46875 167.667969 266.742188 164.195312 265.667969 158.9375 C 264.59375 153.683594 267.582031 148.636719 272.339844 147.667969 C 277.097656 146.695312 281.824219 150.171875 282.894531 155.425781 " fill-opacity="1" fill-rule="nonzero"/><path fill="#ffffff" d="M 271.515625 163.066406 C 272.148438 163.527344 272.925781 163.804688 273.765625 163.796875 C 275.644531 163.785156 277.1875 162.402344 277.460938 160.601562 L 271.515625 163.066406 " fill-opacity="1" fill-rule="nonzero"/><path fill="#000000" d="M 270.503906 144.511719 C 270.503906 144.5 270.511719 144.488281 270.511719 144.484375 C 270.515625 144.488281 270.523438 144.496094 270.535156 144.5 C 270.523438 144.503906 270.515625 144.503906 270.503906 144.511719 Z M 284.542969 142.515625 C 283.992188 139.820312 281.359375 138.082031 278.664062 138.636719 C 278.289062 138.710938 277.929688 138.832031 277.59375 138.984375 C 276.835938 136.761719 274.527344 135.394531 272.164062 135.875 C 269.644531 136.390625 268.003906 138.8125 268.441406 141.328125 C 267.828125 141.070312 267.136719 140.984375 266.4375 141.128906 C 264.605469 141.503906 263.414062 143.292969 263.792969 145.125 C 263.835938 145.359375 263.914062 145.585938 264.003906 145.796875 C 263.707031 145.796875 263.40625 145.828125 263.101562 145.894531 C 260.5 146.417969 258.824219 148.957031 259.351562 151.5625 C 259.871094 154.089844 262.289062 155.75 264.808594 155.351562 C 264.882812 155.332031 264.953125 155.324219 265.023438 155.308594 C 265.214844 155.269531 265.402344 155.21875 265.578125 155.152344 C 267.863281 154.40625 269.269531 152.046875 268.777344 149.636719 C 268.765625 149.589844 268.75 149.539062 268.738281 149.488281 C 269.902344 149.890625 271.550781 149.957031 273.300781 149.597656 C 274.773438 149.304688 276.058594 148.753906 276.976562 148.089844 C 277.078125 148.019531 277.175781 147.945312 277.265625 147.871094 C 278.261719 148.421875 279.453125 148.632812 280.652344 148.386719 C 280.90625 148.335938 281.144531 148.265625 281.375 148.183594 C 283.648438 147.355469 285.042969 144.960938 284.542969 142.515625 " fill-opacity="1" fill-rule="nonzero"/><g clip-path="url(#4186e0b3f9)"><path fill="#8c7bff" d="M 112.691406 335.234375 C 112.691406 343.074219 112.410156 350.726562 111.875 358.128906 L 28.585938 358.128906 C 28.054688 350.726562 27.773438 343.074219 27.773438 335.234375 C 27.773438 310.246094 30.59375 287.078125 35.402344 268.039062 C 35.925781 265.964844 36.472656 263.9375 37.039062 261.964844 C 37.324219 260.984375 37.613281 260.007812 37.910156 259.050781 C 37.945312 258.941406 37.980469 258.828125 38.007812 258.722656 C 39.402344 254.242188 40.910156 250.046875 42.527344 246.191406 L 97.933594 246.191406 C 99.460938 249.84375 100.894531 253.789062 102.226562 258 C 102.242188 258.054688 102.253906 258.109375 102.277344 258.164062 C 102.917969 260.207031 103.539062 262.316406 104.128906 264.484375 C 104.160156 264.605469 104.195312 264.722656 104.226562 264.84375 C 104.34375 265.28125 104.460938 265.722656 104.574219 266.160156 C 105.828125 270.914062 106.953125 275.933594 107.9375 281.1875 C 107.957031 281.277344 107.972656 281.367188 107.988281 281.457031 C 108.328125 283.273438 108.648438 285.113281 108.953125 286.984375 C 108.953125 286.996094 108.957031 287.003906 108.957031 287.015625 C 109.148438 288.175781 109.328125 289.351562 109.507812 290.539062 C 111.558594 304.3125 112.691406 319.410156 112.691406 335.234375 " fill-opacity="1" fill-rule="nonzero"/></g><g clip-path="url(#960f8a8aea)"><path fill="#000000" d="M 111.875 358.527344 C 111.863281 358.527344 111.855469 358.527344 111.84375 358.523438 C 111.625 358.511719 111.460938 358.320312 111.476562 358.097656 C 112.019531 350.628906 112.292969 342.933594 112.292969 335.234375 C 112.292969 319.789062 111.222656 304.769531 109.113281 290.597656 C 108.933594 289.414062 108.753906 288.238281 108.566406 287.078125 C 108.5625 287.078125 108.5625 287.074219 108.5625 287.074219 C 108.5625 287.066406 108.5625 287.054688 108.558594 287.046875 C 108.238281 285.085938 107.921875 283.28125 107.59375 281.53125 C 107.578125 281.441406 107.566406 281.359375 107.546875 281.277344 C 106.578125 276.09375 105.449219 271.046875 104.191406 266.261719 C 104.074219 265.824219 103.960938 265.386719 103.839844 264.949219 L 103.742188 264.582031 C 103.175781 262.507812 102.554688 260.386719 101.894531 258.28125 C 101.878906 258.234375 101.859375 258.167969 101.839844 258.101562 C 100.542969 254.003906 99.136719 250.128906 97.667969 246.589844 L 42.792969 246.589844 C 41.234375 250.328125 39.753906 254.449219 38.390625 258.84375 C 38.363281 258.9375 38.328125 259.042969 38.292969 259.152344 C 37.996094 260.121094 37.703125 261.097656 37.421875 262.078125 C 36.84375 264.085938 36.296875 266.125 35.789062 268.136719 C 30.808594 287.867188 28.171875 311.066406 28.171875 335.234375 C 28.171875 342.90625 28.445312 350.601562 28.984375 358.097656 C 29 358.320312 28.835938 358.511719 28.613281 358.523438 C 28.394531 358.539062 28.203125 358.375 28.1875 358.15625 C 27.648438 350.640625 27.375 342.925781 27.375 335.234375 C 27.375 311 30.019531 287.734375 35.015625 267.945312 C 35.523438 265.921875 36.074219 263.875 36.652344 261.855469 C 36.941406 260.871094 37.230469 259.890625 37.527344 258.933594 C 37.566406 258.8125 37.597656 258.710938 37.625 258.613281 C 39.03125 254.089844 40.554688 249.863281 42.160156 246.039062 C 42.222656 245.890625 42.367188 245.792969 42.527344 245.792969 L 97.933594 245.792969 C 98.09375 245.792969 98.238281 245.890625 98.300781 246.039062 C 99.816406 249.664062 101.265625 253.648438 102.605469 257.875 C 102.621094 257.9375 102.632812 257.980469 102.652344 258.027344 C 103.320312 260.160156 103.945312 262.289062 104.515625 264.378906 L 104.609375 264.746094 C 104.730469 265.175781 104.84375 265.617188 104.960938 266.0625 C 106.226562 270.863281 107.359375 275.929688 108.328125 281.113281 C 108.347656 281.199219 108.363281 281.296875 108.378906 281.394531 C 108.707031 283.140625 109.023438 284.949219 109.347656 286.917969 C 109.347656 286.921875 109.347656 286.925781 109.347656 286.925781 C 109.347656 286.933594 109.351562 286.941406 109.351562 286.949219 C 109.542969 288.113281 109.722656 289.292969 109.902344 290.480469 C 112.019531 304.691406 113.089844 319.75 113.089844 335.234375 C 113.089844 342.957031 112.8125 350.667969 112.273438 358.15625 C 112.257812 358.367188 112.082031 358.527344 111.875 358.527344 " fill-opacity="1" fill-rule="nonzero"/></g><path fill="#fda4ff" d="M 157.78125 187.5625 L 140.539062 186.492188 L 148.855469 168.539062 C 148.855469 168.539062 148.886719 164.023438 153.714844 161.894531 C 154.835938 161.402344 157.226562 160.589844 159.25 159.929688 C 161.554688 159.179688 163.746094 158.121094 165.773438 156.796875 L 168.097656 155.277344 C 169.265625 154.511719 170.828125 154.804688 171.640625 155.9375 L 171.8125 156.179688 C 172.636719 157.332031 172.390625 158.925781 171.261719 159.773438 L 163.972656 165.25 L 167.605469 167.769531 C 169.46875 169.0625 171.65625 169.808594 173.921875 169.925781 L 183.054688 170.589844 C 184.570312 170.699219 185.777344 171.914062 185.875 173.429688 L 185.894531 173.691406 L 190.824219 173.5625 C 192.273438 173.570312 193.464844 174.71875 193.523438 176.167969 C 193.578125 177.59375 192.523438 178.820312 191.105469 178.976562 L 160.183594 182.375 L 157.78125 187.5625 " fill-opacity="1" fill-rule="nonzero"/><path fill="#fda4ff" d="M 140.460938 186.488281 L 147.171875 172.027344 L 161.652344 178.625 L 155.269531 194.773438 L 140.460938 186.488281 " fill-opacity="1" fill-rule="nonzero"/><path fill="#000000" d="M 141 186.324219 L 155.0625 194.203125 L 159.589844 182.253906 C 159.644531 182.117188 159.773438 182.015625 159.921875 182 L 191.0625 178.578125 C 192.269531 178.445312 193.171875 177.398438 193.125 176.1875 C 193.074219 174.945312 192.0625 173.96875 190.820312 173.960938 L 185.902344 174.089844 C 185.6875 174.097656 185.507812 173.929688 185.492188 173.71875 L 185.476562 173.457031 C 185.390625 172.144531 184.339844 171.085938 183.023438 170.988281 L 173.890625 170.324219 C 171.558594 170.203125 169.304688 169.433594 167.378906 168.097656 L 163.746094 165.578125 C 163.640625 165.503906 163.578125 165.386719 163.574219 165.257812 C 163.570312 165.128906 163.632812 165.007812 163.734375 164.929688 L 171.023438 159.457031 C 171.972656 158.742188 172.179688 157.378906 171.488281 156.414062 L 171.316406 156.167969 C 170.628906 155.207031 169.308594 154.960938 168.316406 155.609375 L 165.992188 157.128906 C 163.933594 158.476562 161.707031 159.546875 159.375 160.308594 C 156.671875 161.191406 154.769531 161.867188 153.875 162.261719 C 149.335938 164.257812 149.253906 168.5 149.253906 168.542969 C 149.253906 168.597656 149.238281 168.652344 149.214844 168.707031 Z M 155.269531 195.171875 C 155.203125 195.171875 155.136719 195.15625 155.074219 195.121094 L 140.285156 186.835938 C 140.105469 186.734375 140.03125 186.511719 140.121094 186.320312 L 148.460938 168.441406 C 148.5 167.757812 148.941406 163.5625 153.554688 161.53125 C 154.714844 161.019531 157.226562 160.171875 159.128906 159.550781 C 161.390625 158.808594 163.554688 157.769531 165.558594 156.464844 L 167.878906 154.941406 C 169.230469 154.058594 171.027344 154.394531 171.964844 155.707031 L 172.136719 155.949219 C 173.082031 157.265625 172.792969 159.125 171.5 160.09375 L 164.65625 165.238281 L 167.835938 167.441406 C 169.640625 168.691406 171.75 169.414062 173.941406 169.53125 L 183.082031 170.195312 C 184.75 170.316406 186.09375 171.632812 186.261719 173.28125 L 190.8125 173.164062 C 192.496094 173.171875 193.855469 174.488281 193.921875 176.15625 C 193.988281 177.78125 192.769531 179.195312 191.148438 179.375 L 160.25 182.765625 L 155.640625 194.914062 C 155.601562 195.023438 155.515625 195.109375 155.40625 195.148438 C 155.363281 195.164062 155.316406 195.171875 155.269531 195.171875 " fill-opacity="1" fill-rule="nonzero"/><path fill="#fda4ff" d="M 164.972656 174.136719 L 167.578125 173.6875 C 169.234375 173.402344 170.773438 172.644531 172.007812 171.503906 L 178.765625 165.253906 C 179.738281 164.355469 181.25 164.402344 182.164062 165.363281 C 183.035156 166.273438 183.058594 167.703125 182.21875 168.640625 L 175.367188 176.339844 C 174.8125 176.960938 174.140625 177.464844 173.386719 177.824219 L 169.332031 179.75 L 164.972656 174.136719 " fill-opacity="1" fill-rule="nonzero"/><path fill="#fda4ff" d="M 171.832031 172.71875 L 174.472656 172.707031 C 176.15625 172.703125 177.800781 172.207031 179.207031 171.285156 L 186.902344 166.242188 C 188.011719 165.515625 189.496094 165.8125 190.238281 166.910156 C 190.945312 167.953125 190.734375 169.363281 189.75 170.152344 L 181.71875 176.609375 C 181.070312 177.128906 180.320312 177.519531 179.519531 177.746094 L 175.203125 178.976562 L 171.832031 172.71875 " fill-opacity="1" fill-rule="nonzero"/><path fill="#000000" d="M 179.519531 178.144531 C 179.347656 178.144531 179.1875 178.03125 179.136719 177.855469 C 179.074219 177.644531 179.199219 177.425781 179.410156 177.363281 C 180.164062 177.148438 180.859375 176.789062 181.46875 176.300781 L 189.5 169.839844 C 190.316406 169.1875 190.496094 167.996094 189.90625 167.132812 C 189.292969 166.21875 188.042969 165.972656 187.121094 166.574219 L 181.230469 170.472656 C 181.042969 170.59375 180.796875 170.546875 180.675781 170.363281 C 180.554688 170.179688 180.605469 169.929688 180.789062 169.808594 L 186.683594 165.910156 C 187.964844 165.066406 189.707031 165.417969 190.570312 166.683594 C 191.386719 167.890625 191.136719 169.550781 190 170.460938 L 181.96875 176.921875 C 181.273438 177.480469 180.484375 177.886719 179.628906 178.128906 C 179.59375 178.140625 179.554688 178.144531 179.519531 178.144531 " fill-opacity="1" fill-rule="nonzero"/><path fill="#000000" d="M 171.800781 179.460938 C 171.648438 179.460938 171.507812 179.375 171.4375 179.230469 C 171.34375 179.03125 171.433594 178.796875 171.632812 178.703125 C 173.351562 177.898438 174.90625 176.710938 176.125 175.257812 L 181.914062 168.386719 C 182.617188 167.597656 182.597656 166.394531 181.875 165.636719 C 181.117188 164.84375 179.84375 164.800781 179.039062 165.546875 L 172.28125 171.796875 C 170.984375 172.996094 169.382812 173.785156 167.644531 174.082031 L 162.214844 174.597656 C 161.992188 174.617188 161.804688 174.457031 161.78125 174.242188 C 161.761719 174.023438 161.921875 173.824219 162.140625 173.804688 L 167.539062 173.292969 C 169.09375 173.023438 170.558594 172.304688 171.738281 171.210938 L 178.492188 164.964844 C 179.621094 163.921875 181.394531 163.976562 182.453125 165.089844 C 183.457031 166.140625 183.488281 167.820312 182.519531 168.90625 L 176.738281 175.773438 C 175.441406 177.308594 173.792969 178.574219 171.96875 179.425781 C 171.914062 179.449219 171.855469 179.460938 171.800781 179.460938 " fill-opacity="1" fill-rule="nonzero"/><path fill="#000000" d="M 161.859375 167.214844 C 161.738281 167.214844 161.617188 167.160156 161.539062 167.054688 C 161.40625 166.878906 161.445312 166.628906 161.621094 166.496094 L 163.84375 164.851562 C 164.023438 164.71875 164.269531 164.757812 164.402344 164.933594 C 164.535156 165.109375 164.496094 165.359375 164.320312 165.492188 L 162.09375 167.136719 C 162.023438 167.1875 161.941406 167.214844 161.859375 167.214844 " fill-opacity="1" fill-rule="nonzero"/><path fill="#6155ff" d="M 42.25 233.625 L 93.800781 234.234375 L 107.96875 261.8125 L 91.441406 273.328125 L 82.058594 261.8125 L 75.90625 273.328125 L 24.949219 266.671875 L 42.25 233.625 " fill-opacity="1" fill-rule="nonzero"/><path fill="#8c7bff" d="M 64.882812 168.921875 L 83.859375 173.96875 C 94.675781 176.84375 104.53125 182.542969 112.421875 190.476562 L 124.867188 202.996094 L 136.582031 178.054688 L 164.125 190.054688 L 145.0625 229.511719 C 139.277344 241.484375 123.386719 244.140625 114.019531 234.699219 L 95.894531 216.460938 L 93.800781 234.234375 L 46.425781 234.234375 L 32.9375 178.820312 L 64.882812 168.921875 " fill-opacity="1" fill-rule="nonzero"/><path fill="#000000" d="M 114.425781 225.625 C 114.371094 225.625 114.3125 225.609375 114.257812 225.585938 C 114.058594 225.492188 113.972656 225.253906 114.066406 225.054688 L 124.503906 202.828125 C 124.597656 202.628906 124.835938 202.542969 125.035156 202.636719 C 125.234375 202.730469 125.320312 202.96875 125.226562 203.164062 L 114.789062 225.394531 C 114.722656 225.539062 114.578125 225.625 114.425781 225.625 " fill-opacity="1" fill-rule="nonzero"/><path fill="#ffffff" d="M 77.496094 212.292969 L 75.246094 171.679688 L 64.882812 168.449219 L 51.410156 172.820312 L 77.496094 212.292969 " fill-opacity="1" fill-rule="nonzero"/><path fill="#000000" d="M 95.84375 216.890625 C 95.707031 216.890625 95.570312 216.816406 95.496094 216.6875 C 95.386719 216.496094 95.457031 216.253906 95.644531 216.144531 C 98.808594 214.347656 100.773438 210.976562 100.773438 207.34375 C 100.773438 203.269531 98.347656 199.609375 94.589844 198.023438 C 94.472656 197.972656 94.386719 197.867188 94.355469 197.742188 L 92.132812 187.625 C 92.082031 187.410156 92.21875 187.199219 92.433594 187.152344 C 92.648438 187.101562 92.863281 187.238281 92.910156 187.453125 L 95.09375 197.375 C 99.035156 199.128906 101.570312 203.019531 101.570312 207.34375 C 101.570312 211.261719 99.453125 214.898438 96.039062 216.835938 C 95.976562 216.871094 95.910156 216.890625 95.84375 216.890625 " fill-opacity="1" fill-rule="nonzero"/><path fill="#000000" d="M 82.246094 264.386719 C 82.230469 264.386719 82.210938 264.382812 82.191406 264.382812 C 81.976562 264.351562 81.820312 264.148438 81.851562 263.933594 L 85.867188 234.671875 L 77.125 212.4375 C 77.042969 212.234375 77.144531 212 77.351562 211.921875 C 77.554688 211.839844 77.785156 211.941406 77.867188 212.148438 L 86.648438 234.476562 C 86.671875 234.539062 86.679688 234.609375 86.671875 234.675781 L 82.640625 264.039062 C 82.613281 264.242188 82.445312 264.386719 82.246094 264.386719 " fill-opacity="1" fill-rule="nonzero"/><path fill="#6155ff" d="M 77.496094 226.496094 C 77.398438 226.496094 77.300781 226.460938 77.226562 226.390625 L 55.773438 206.550781 C 55.640625 206.425781 55.609375 206.226562 55.695312 206.066406 L 60.125 198.09375 L 48.050781 197.738281 C 47.855469 197.730469 47.691406 197.582031 47.667969 197.386719 L 44.859375 174.648438 C 44.832031 174.429688 44.988281 174.230469 45.207031 174.203125 C 45.425781 174.179688 45.625 174.332031 45.652344 174.550781 L 48.417969 196.949219 L 60.800781 197.320312 C 60.941406 197.320312 61.066406 197.398438 61.136719 197.519531 C 61.207031 197.640625 61.207031 197.789062 61.136719 197.910156 L 56.546875 206.179688 L 77.765625 225.804688 C 77.929688 225.953125 77.9375 226.207031 77.789062 226.371094 C 77.710938 226.453125 77.601562 226.496094 77.496094 226.496094 " fill-opacity="1" fill-rule="nonzero"/><path fill="#6155ff" d="M 84.367188 225.625 C 84.347656 225.625 84.324219 225.621094 84.304688 225.617188 C 84.085938 225.582031 83.9375 225.378906 83.972656 225.160156 L 87.925781 200.582031 L 79.683594 196.664062 C 79.542969 196.597656 79.453125 196.453125 79.457031 196.296875 C 79.460938 196.140625 79.554688 196 79.695312 195.9375 L 87.878906 192.40625 L 82.078125 173.714844 C 82.015625 173.503906 82.132812 173.28125 82.34375 173.214844 C 82.550781 173.148438 82.777344 173.269531 82.839844 173.476562 L 88.746094 192.511719 C 88.808594 192.707031 88.710938 192.917969 88.523438 192.996094 L 80.820312 196.320312 L 88.539062 199.988281 C 88.699219 200.066406 88.789062 200.238281 88.761719 200.410156 L 84.761719 225.289062 C 84.730469 225.484375 84.558594 225.625 84.367188 225.625 " fill-opacity="1" fill-rule="nonzero"/><path fill="#000000" d="M 46.425781 234.632812 C 46.246094 234.632812 46.085938 234.511719 46.039062 234.332031 L 39.914062 210.167969 C 39.90625 210.132812 39.902344 210.101562 39.902344 210.070312 C 39.902344 209.890625 40.019531 209.730469 40.203125 209.679688 C 40.414062 209.628906 40.632812 209.757812 40.6875 209.972656 L 46.8125 234.136719 C 46.820312 234.167969 46.824219 234.203125 46.824219 234.234375 C 46.824219 234.410156 46.703125 234.574219 46.523438 234.621094 C 46.492188 234.628906 46.457031 234.632812 46.425781 234.632812 " fill-opacity="1" fill-rule="nonzero"/><path fill="#000000" d="M 34.789062 250.789062 C 34.707031 250.789062 34.628906 250.765625 34.554688 250.714844 C 34.378906 250.585938 34.335938 250.335938 34.464844 250.15625 L 46.101562 234 C 46.230469 233.824219 46.480469 233.78125 46.660156 233.910156 C 46.835938 234.039062 46.878906 234.289062 46.75 234.464844 L 35.113281 250.625 C 35.035156 250.730469 34.914062 250.789062 34.789062 250.789062 " fill-opacity="1" fill-rule="nonzero"/><path fill="#000000" d="M 47.988281 272.140625 C 42.175781 270.683594 39.308594 266.761719 37.011719 261.910156 C 34.714844 257.050781 33.484375 250.382812 33.484375 250.382812 L 39.425781 237.652344 L 58.902344 251.324219 L 106.503906 265.527344 L 110.078125 290.710938 L 47.988281 272.140625 " fill-opacity="1" fill-rule="nonzero"/><path fill="#8c7bff" d="M 50.582031 270.066406 C 44.769531 268.605469 40.367188 265.203125 38.011719 258.734375 C 33.300781 245.777344 25.230469 220.171875 22.878906 207.617188 C 20.253906 193.628906 22.566406 183.492188 34.304688 178.464844 C 34.617188 178.332031 39.71875 176.714844 40.042969 176.613281 L 51.78125 210.398438 L 61.84375 249.03125 L 121.210938 262.4375 L 113.738281 288.371094 L 50.582031 270.066406 " fill-opacity="1" fill-rule="nonzero"/><path fill="#000000" d="M 113.738281 288.769531 C 113.703125 288.769531 113.667969 288.765625 113.628906 288.757812 L 52.730469 271.46875 C 47.074219 270.042969 40.105469 266.078125 37.550781 259.226562 C 32.226562 244.929688 23.523438 213.617188 21.5 201.464844 C 19.480469 189.367188 26.949219 181.183594 32.460938 178.632812 C 36.320312 176.847656 45.25 175.398438 45.628906 175.339844 C 45.84375 175.300781 46.050781 175.449219 46.085938 175.667969 C 46.121094 175.886719 45.972656 176.089844 45.753906 176.125 C 45.664062 176.136719 36.554688 177.617188 32.796875 179.355469 C 27.507812 181.804688 20.339844 189.675781 22.285156 201.332031 C 24.304688 213.453125 32.988281 244.683594 38.300781 258.945312 C 40.742188 265.511719 47.464844 269.320312 52.9375 270.695312 L 113.464844 287.878906 L 120.710938 262.730469 L 61.574219 248.890625 C 61.429688 248.855469 61.316406 248.746094 61.28125 248.601562 L 52.101562 212.257812 C 52.046875 212.046875 52.175781 211.828125 52.390625 211.773438 C 52.605469 211.722656 52.820312 211.851562 52.875 212.0625 L 61.992188 248.167969 L 121.300781 262.050781 C 121.410156 262.078125 121.5 262.144531 121.554688 262.238281 C 121.609375 262.332031 121.625 262.445312 121.59375 262.550781 L 114.121094 288.484375 C 114.070312 288.65625 113.914062 288.769531 113.738281 288.769531 " fill-opacity="1" fill-rule="nonzero"/><path fill="#000000" d="M 29.304688 161.414062 C 29.304688 170.21875 36.445312 177.355469 45.257812 177.355469 C 54.066406 177.355469 61.207031 170.21875 61.207031 161.414062 C 61.207031 152.609375 54.066406 145.46875 45.257812 145.46875 C 36.445312 145.46875 29.304688 152.609375 29.304688 161.414062 " fill-opacity="1" fill-rule="nonzero"/><path fill="#fda4ff" d="M 57.617188 171.507812 L 71.210938 181.910156 L 71.210938 151.539062 L 57.617188 151.539062 L 57.617188 171.507812 " fill-opacity="1" fill-rule="nonzero"/><path fill="#000000" d="M 57.617188 156.6875 L 57.617188 151.539062 L 71.210938 151.539062 L 71.210938 162.90625 C 69.980469 163.148438 67.539062 163.457031 64.730469 162.53125 C 60.335938 161.085938 58.179688 157.652344 57.617188 156.6875 " fill-opacity="1" fill-rule="nonzero"/><path fill="#000000" d="M 56.832031 154.121094 L 65.03125 146.519531 L 75.882812 143.402344 L 75.398438 140.992188 C 73.765625 132.855469 64.6875 128.660156 57.425781 132.679688 C 50.195312 136.683594 48.917969 146.542969 54.886719 152.257812 L 56.832031 154.121094 " fill-opacity="1" fill-rule="nonzero"/><path fill="#fda4ff" d="M 55.324219 147.527344 C 55.324219 154.195312 60.21875 159.601562 66.253906 159.601562 C 72.292969 159.601562 77.183594 154.195312 77.183594 147.527344 C 77.183594 140.859375 72.292969 135.453125 66.253906 135.453125 C 60.21875 135.453125 55.324219 140.859375 55.324219 147.527344 " fill-opacity="1" fill-rule="nonzero"/><path fill="#ffffff" d="M 72.171875 153.210938 C 71.007812 154.179688 69.535156 154.804688 67.902344 154.894531 C 64.261719 155.089844 61.105469 152.585938 60.371094 149.128906 L 72.171875 153.210938 " fill-opacity="1" fill-rule="nonzero"/><path fill="#000000" d="M 80.667969 144.246094 L 60.371094 144.246094 L 60.371094 133.972656 L 70.390625 133.972656 C 76.066406 133.972656 80.667969 138.574219 80.667969 144.246094 " fill-opacity="1" fill-rule="nonzero"/><path fill="#000000" d="M 119.847656 93.023438 C 131.179688 100.859375 134.03125 116.410156 126.226562 127.761719 C 118.417969 139.109375 102.902344 141.953125 91.574219 134.117188 C 80.242188 126.28125 77.386719 110.730469 85.195312 99.382812 C 93.003906 88.035156 108.519531 85.1875 119.847656 93.023438 " fill-opacity="1" fill-rule="nonzero"/><path fill="#fed101" d="M 117.683594 94.480469 C 129.015625 102.320312 131.871094 117.867188 124.0625 129.21875 C 116.253906 140.566406 100.738281 143.414062 89.410156 135.578125 C 78.082031 127.742188 75.226562 112.1875 83.03125 100.839844 C 90.839844 89.492188 106.355469 86.644531 117.683594 94.480469 " fill-opacity="1" fill-rule="nonzero"/><path fill="#ffffff" d="M 112.476562 127.398438 L 110.128906 124.75 C 108.261719 126.363281 106.078125 127.503906 104.515625 127.855469 L 102.421875 123.832031 C 104.117188 123.410156 106.214844 122.503906 107.953125 120.855469 C 109.476562 119.414062 109.976562 117.8125 108.984375 116.699219 C 108.046875 115.640625 106.597656 115.78125 104 116.957031 C 100.246094 118.664062 97.054688 119.117188 94.65625 116.414062 C 92.476562 113.960938 92.429688 110.464844 94.769531 107.171875 L 92.421875 104.523438 L 95.042969 102.042969 L 97.21875 104.496094 C 99.085938 102.882812 100.636719 102.136719 101.914062 101.746094 L 103.933594 105.628906 C 102.96875 105.980469 101.167969 106.503906 99.242188 108.328125 C 97.503906 109.972656 97.632812 111.285156 98.328125 112.066406 C 99.144531 112.984375 100.597656 112.683594 103.664062 111.425781 C 107.886719 109.582031 110.53125 109.902344 112.757812 112.410156 C 114.960938 114.890625 115.15625 118.605469 112.574219 122.074219 L 115.097656 124.914062 L 112.476562 127.398438 " fill-opacity="1" fill-rule="nonzero"/><path fill="#000000" d="M 62.71875 58.617188 C 74.046875 66.453125 76.902344 82.007812 69.09375 93.355469 C 61.285156 104.703125 45.773438 107.550781 34.441406 99.714844 C 23.113281 91.878906 20.257812 76.324219 28.066406 64.976562 C 35.875 53.628906 51.386719 50.78125 62.71875 58.617188 " fill-opacity="1" fill-rule="nonzero"/><path fill="#ffffff" d="M 60.554688 60.078125 C 71.886719 67.914062 74.738281 83.464844 66.933594 94.8125 C 59.125 106.160156 43.609375 109.007812 32.28125 101.171875 C 20.949219 93.335938 18.09375 77.785156 25.902344 66.4375 C 33.710938 55.085938 49.226562 52.242188 60.554688 60.078125 " fill-opacity="1" fill-rule="nonzero"/><path fill="#000000" d="M 46.445312 56.046875 C 44.960938 56.046875 43.46875 56.179688 41.980469 56.453125 C 35.539062 57.636719 29.945312 61.261719 26.230469 66.664062 C 18.558594 77.8125 21.375 93.144531 32.507812 100.84375 C 37.898438 104.574219 44.414062 105.976562 50.855469 104.792969 C 57.292969 103.613281 62.886719 99.988281 66.601562 94.585938 C 74.273438 83.4375 71.460938 68.105469 60.328125 60.402344 C 56.183594 57.539062 51.375 56.046875 46.445312 56.046875 Z M 46.386719 106 C 41.296875 106 36.332031 104.460938 32.050781 101.5 C 20.5625 93.550781 17.65625 77.71875 25.574219 66.210938 C 29.410156 60.632812 35.1875 56.890625 41.835938 55.671875 C 48.484375 54.449219 55.214844 55.898438 60.78125 59.75 C 72.273438 67.699219 75.179688 83.527344 67.261719 95.039062 C 63.421875 100.617188 57.648438 104.359375 51 105.578125 C 49.460938 105.859375 47.917969 106 46.386719 106 " fill-opacity="1" fill-rule="nonzero"/><path fill="#fed101" d="M 41.480469 94.792969 L 42.246094 91.335938 C 39.847656 90.769531 37.640625 89.671875 36.441406 88.613281 L 38.46875 84.558594 C 39.804688 85.683594 41.769531 86.847656 44.125 87.292969 C 46.1875 87.679688 47.777344 87.144531 48.097656 85.691406 C 48.40625 84.304688 47.441406 83.214844 44.964844 81.800781 C 41.378906 79.761719 39.140625 77.445312 39.921875 73.917969 C 40.632812 70.714844 43.433594 68.625 47.476562 68.589844 L 48.242188 65.132812 L 51.789062 65.800781 L 51.078125 69.003906 C 53.480469 69.566406 54.996094 70.382812 56.0625 71.191406 L 54.101562 75.105469 C 53.25 74.527344 51.769531 73.378906 49.164062 72.886719 C 46.8125 72.445312 45.824219 73.320312 45.597656 74.339844 C 45.332031 75.542969 46.429688 76.542969 49.25 78.285156 C 53.21875 80.625 54.511719 82.953125 53.785156 86.226562 C 53.070312 89.464844 50.175781 91.804688 45.851562 91.746094 L 45.03125 95.460938 L 41.480469 94.792969 " fill-opacity="1" fill-rule="nonzero"/><path fill="#000000" d="M 79.777344 30.757812 C 88.191406 36.574219 90.3125 48.128906 84.515625 56.554688 C 78.714844 64.984375 67.191406 67.101562 58.773438 61.28125 C 50.359375 55.457031 48.238281 43.90625 54.039062 35.480469 C 59.835938 27.050781 71.359375 24.933594 79.777344 30.757812 " fill-opacity="1" fill-rule="nonzero"/><path fill="#fed101" d="M 78.171875 31.839844 C 86.585938 37.660156 88.707031 49.210938 82.90625 57.640625 C 77.109375 66.070312 65.585938 68.183594 57.167969 62.363281 C 48.753906 56.542969 46.632812 44.992188 52.433594 36.5625 C 58.230469 28.132812 69.753906 26.019531 78.171875 31.839844 " fill-opacity="1" fill-rule="nonzero"/><path fill="#ffffff" d="M 67.179688 58.269531 L 67.003906 55.644531 C 65.175781 55.742188 63.371094 55.421875 62.296875 54.917969 L 62.898438 51.601562 C 64.085938 52.125 65.730469 52.546875 67.5 52.371094 C 69.050781 52.21875 70.070312 51.503906 69.996094 50.398438 C 69.925781 49.351562 69.011719 48.773438 66.953125 48.28125 C 63.972656 47.578125 61.890625 46.394531 61.714844 43.710938 C 61.550781 41.28125 63.109375 39.210938 65.984375 38.339844 L 65.808594 35.714844 L 68.476562 35.453125 L 68.640625 37.882812 C 70.46875 37.785156 71.722656 38.050781 72.648438 38.402344 L 72.066406 41.601562 C 71.339844 41.371094 70.046875 40.855469 68.085938 41.054688 C 66.316406 41.226562 65.796875 42.058594 65.847656 42.832031 C 65.90625 43.742188 66.898438 44.226562 69.273438 44.882812 C 72.589844 45.722656 73.996094 47.113281 74.164062 49.597656 C 74.328125 52.054688 72.753906 54.324219 69.660156 55.1875 L 69.847656 58.003906 L 67.179688 58.269531 " fill-opacity="1" fill-rule="nonzero"/><path fill="#000000" d="M 277.378906 108.023438 L 329.117188 108.023438 L 342.90625 75.34375 L 273.242188 75.34375 Z M 329.382812 108.816406 L 277.027344 108.816406 C 276.824219 108.816406 276.65625 108.667969 276.632812 108.46875 L 272.394531 74.996094 C 272.378906 74.882812 272.414062 74.769531 272.488281 74.679688 C 272.566406 74.597656 272.675781 74.546875 272.789062 74.546875 L 343.507812 74.546875 C 343.640625 74.546875 343.765625 74.613281 343.839844 74.722656 C 343.914062 74.835938 343.925781 74.976562 343.875 75.097656 L 329.75 108.574219 C 329.6875 108.722656 329.542969 108.816406 329.382812 108.816406 " fill-opacity="1" fill-rule="nonzero"/><path fill="#000000" d="M 272.789062 75.34375 C 272.59375 75.34375 272.421875 75.199219 272.394531 75 L 269.597656 54.347656 L 255.566406 54.347656 C 255.34375 54.347656 255.167969 54.171875 255.167969 53.949219 C 255.167969 53.730469 255.34375 53.550781 255.566406 53.550781 L 269.945312 53.550781 C 270.144531 53.550781 270.3125 53.699219 270.34375 53.898438 L 273.183594 74.890625 C 273.214844 75.109375 273.0625 75.3125 272.84375 75.339844 C 272.824219 75.34375 272.808594 75.34375 272.789062 75.34375 " fill-opacity="1" fill-rule="nonzero"/><path fill="#000000" d="M 281.453125 116.453125 C 278.242188 116.453125 275.636719 118.941406 275.636719 122 C 275.636719 125.058594 278.242188 127.550781 281.453125 127.550781 C 284.65625 127.550781 287.261719 125.058594 287.261719 122 C 287.261719 118.941406 284.65625 116.453125 281.453125 116.453125 Z M 281.453125 128.34375 C 277.804688 128.34375 274.839844 125.5 274.839844 122 C 274.839844 118.5 277.804688 115.65625 281.453125 115.65625 C 285.09375 115.65625 288.0625 118.5 288.0625 122 C 288.0625 125.5 285.09375 128.34375 281.453125 128.34375 " fill-opacity="1" fill-rule="nonzero"/><path fill="#000000" d="M 322.410156 116.453125 C 319.203125 116.453125 316.597656 118.941406 316.597656 122 C 316.597656 125.058594 319.203125 127.550781 322.410156 127.550781 C 325.617188 127.550781 328.226562 125.058594 328.226562 122 C 328.226562 118.941406 325.617188 116.453125 322.410156 116.453125 Z M 322.410156 128.34375 C 318.765625 128.34375 315.800781 125.5 315.800781 122 C 315.800781 118.5 318.765625 115.65625 322.410156 115.65625 C 326.054688 115.65625 329.019531 118.5 329.019531 122 C 329.019531 125.5 326.054688 128.34375 322.410156 128.34375 " fill-opacity="1" fill-rule="nonzero"/><path fill="#000000" d="M 303.386719 108.816406 C 303.378906 108.816406 303.367188 108.816406 303.359375 108.816406 C 303.136719 108.800781 302.972656 108.613281 302.988281 108.394531 L 305.273438 74.917969 C 305.289062 74.699219 305.472656 74.53125 305.695312 74.546875 C 305.917969 74.5625 306.082031 74.753906 306.070312 74.972656 L 303.785156 108.449219 C 303.769531 108.65625 303.59375 108.816406 303.386719 108.816406 " fill-opacity="1" fill-rule="nonzero"/><path fill="#000000" d="M 317.273438 108.816406 C 317.25 108.816406 317.226562 108.816406 317.203125 108.8125 C 316.988281 108.773438 316.839844 108.566406 316.878906 108.351562 L 322.746094 74.875 C 322.785156 74.660156 322.988281 74.511719 323.207031 74.550781 C 323.421875 74.589844 323.566406 74.796875 323.53125 75.015625 L 317.664062 108.488281 C 317.632812 108.683594 317.460938 108.816406 317.273438 108.816406 " fill-opacity="1" fill-rule="nonzero"/><path fill="#000000" d="M 289.324219 108.816406 C 289.109375 108.816406 288.933594 108.652344 288.925781 108.441406 L 287.265625 74.964844 C 287.253906 74.746094 287.421875 74.558594 287.640625 74.546875 C 287.871094 74.535156 288.050781 74.703125 288.058594 74.925781 L 289.722656 108.398438 C 289.730469 108.621094 289.5625 108.804688 289.34375 108.816406 C 289.335938 108.816406 289.328125 108.816406 289.324219 108.816406 " fill-opacity="1" fill-rule="nonzero"/><path fill="#fed101" d="M 348.097656 58.011719 C 348.097656 70.257812 338.171875 80.1875 325.929688 80.1875 C 313.6875 80.1875 303.761719 70.257812 303.761719 58.011719 C 303.761719 45.765625 313.6875 35.835938 325.929688 35.835938 C 338.171875 35.835938 348.097656 45.765625 348.097656 58.011719 " fill-opacity="1" fill-rule="nonzero"/><path fill="#000000" d="M 307.710938 49.246094 L 328.160156 76.726562 L 346.300781 49.257812 C 345.109375 46.484375 343.367188 44.007812 341.210938 41.957031 L 327.753906 62.332031 L 314.34375 44.308594 L 307.710938 49.246094 " fill-opacity="1" fill-rule="nonzero"/><path fill="#ffffff" d="M 323.835938 74.996094 L 303.386719 47.515625 L 310.015625 42.578125 L 323.429688 60.601562 L 345.148438 27.714844 L 352.046875 32.273438 L 323.835938 74.996094 " fill-opacity="1" fill-rule="nonzero"/><path fill="#000000" d="M 303.945312 47.597656 L 323.8125 74.300781 L 351.496094 32.386719 L 345.265625 28.269531 L 323.761719 60.824219 C 323.691406 60.929688 323.570312 60.996094 323.441406 61 C 323.292969 61.011719 323.1875 60.945312 323.109375 60.839844 L 309.9375 43.136719 Z M 323.835938 75.394531 C 323.707031 75.394531 323.589844 75.332031 323.511719 75.230469 L 303.066406 47.753906 C 302.933594 47.578125 302.972656 47.328125 303.148438 47.199219 L 309.78125 42.257812 C 309.863281 42.195312 309.96875 42.167969 310.074219 42.183594 C 310.179688 42.199219 310.273438 42.253906 310.335938 42.339844 L 323.410156 59.90625 L 344.816406 27.496094 C 344.875 27.40625 344.964844 27.347656 345.070312 27.324219 C 345.171875 27.304688 345.28125 27.324219 345.371094 27.382812 L 352.269531 31.941406 C 352.453125 32.0625 352.5 32.308594 352.378906 32.492188 L 324.164062 75.214844 C 324.09375 75.320312 323.972656 75.390625 323.84375 75.394531 C 323.84375 75.394531 323.835938 75.394531 323.835938 75.394531 " fill-opacity="1" fill-rule="nonzero"/></svg>